<svg
        fill="none"
        height="37"
        viewBox="0 0 133 37"
        width="133"
        xmlns="http://www.w3.org/2000/svg"
>
    <path
            clip-rule="evenodd"
            d="M62.4215 0V19.9054C62.4215 21.9705 61.9008 23.8636 60.9174 25.6419C59.876 27.4202 58.4876 28.7969 56.6942 29.8295C54.9587 30.862 52.9917 31.3783 50.9091 31.3783C48.8264 31.3783 46.9174 30.862 45.124 29.8295C43.3306 28.7969 41.9421 27.4202 40.9008 25.6419C39.8595 23.8636 39.3388 21.9705 39.3388 19.9054V13.0217H43.9091V19.6186C43.9091 20.8233 44.1983 22.0279 44.8347 23.0605C45.4711 24.093 46.281 24.9535 47.3802 25.5845C48.4793 26.2155 49.6364 26.5023 50.8512 26.5023C52.124 26.5023 53.3388 26.2155 54.3802 25.5845C55.4215 24.9535 56.2893 24.093 56.9256 23.0605C57.562 22.0279 57.8512 20.8806 57.8512 19.6186V0H62.4215ZM5.43802 25.814C4.97521 25.4124 4.7438 24.8388 4.7438 24.2651C4.7438 23.6341 4.97521 23.1178 5.43802 22.6589C5.90083 22.2 6.42149 21.9705 7.05785 21.9705H14.4628H29.3884C30.6033 21.9705 31.7603 21.6837 32.8017 21.0527C33.843 20.4791 34.6529 19.6186 35.2314 18.6434C35.8099 17.6109 36.0992 16.5209 36.0992 15.2589V7.74419H31.5289V15.0295C31.5289 15.6605 31.2975 16.1767 30.8926 16.5783C30.4876 16.9798 29.9669 17.2093 29.3884 17.2093H14.4628H7.05785H3.93388C2.31405 18.2419 1.04132 19.7907 0.520661 21.569C0.491736 21.655 0.46281 21.7267 0.433884 21.7985C0.404959 21.8702 0.376033 21.9419 0.347107 22.0279H0.404959C0.115702 22.6589 0 23.4047 0 24.2078C0 25.4698 0.289256 26.6744 0.92562 27.707C1.56198 28.7395 2.42975 29.6 3.52893 30.231C4.6281 30.862 5.84298 31.1488 7.1157 31.1488H24.4711V26.3876H7C6.42149 26.445 5.84297 26.2155 5.43802 25.814ZM30.5455 26.6171H26.2645V30.862H30.5455V26.6171ZM29.3884 37V32.755H33.6694V37H29.3884ZM36.6777 26.6171H32.3967V30.862H36.6777V26.6171ZM76.6529 4.8186H72.3719V9.06357H76.6529V4.8186ZM78.562 4.8186H82.843V9.06357H78.562V4.8186ZM96.0331 4.70388H91.7521V8.94884H96.0331V4.70388ZM132.017 13.1938C132.653 14.3411 133 15.5457 133 16.9225C133 16.9225 132.942 16.9798 132.884 16.9798V17.0372C132.884 18.3566 132.595 19.6186 131.901 20.7659C131.264 21.9132 130.339 22.831 129.182 23.5194C128.025 24.2078 126.81 24.5519 125.421 24.5519H107.661H101.76H100.141H99.7355H98.2893C96.3223 24.5519 94.8182 23.8636 93.7769 22.4868C92.7355 23.8636 91.2314 24.5519 89.3223 24.5519H87.4711H85.157C83.2479 24.5519 81.7438 23.8636 80.7025 22.4868C80.1818 23.1752 79.5455 23.6915 78.7934 24.0357C78.0413 24.3798 77.1736 24.5519 76.2479 24.5519H73.9339H72.3141C71.5041 24.5519 70.8099 24.4372 70.1157 24.1504C70 25.9287 69.7107 27.3628 69.1322 28.5674C68.5537 29.7147 67.686 30.8046 66.4711 31.7225C65.3141 32.6403 63.5785 33.6729 61.3802 34.7054L59.6446 30.9194C61.438 29.8868 62.7107 29.0837 63.4628 28.5101C64.2149 27.9364 64.7934 27.2481 65.0826 26.5023C65.3719 25.7566 65.5455 24.6667 65.5455 23.2899V11.4155H70.1157V17.6109C70.1157 18.2419 70.3471 18.7581 70.7521 19.1597C71.157 19.5612 71.6777 19.7907 72.3141 19.7907H73.9339H76.2479C76.8843 19.7907 77.405 19.5612 77.8099 19.1597C78.2149 18.7581 78.4463 18.2419 78.4463 17.6109V11.4155H83.0165V17.6109C83.0165 18.2419 83.2479 18.7581 83.6529 19.1597C84.0579 19.5612 84.5785 19.7907 85.2149 19.7907H87.5289H89.3802C90.0165 19.7907 90.5372 19.5612 90.9421 19.1597C91.3471 18.7581 91.5785 18.2419 91.5785 17.6109V11.4155H96.1488V17.7256C96.1488 18.3566 96.3802 18.8729 96.7851 19.2744C97.1901 19.676 97.7107 19.9054 98.3471 19.9054H99.8512H100.256H100.372H108.182H125.537H125.653C126.405 19.8481 127.041 19.6186 127.562 19.1023C127.749 18.9634 127.86 18.787 127.957 18.6336C127.98 18.5971 128.003 18.5618 128.025 18.5287L128.198 18.1845V18.1271C128.275 18.0124 128.301 17.8976 128.327 17.7829C128.34 17.7256 128.353 17.6682 128.372 17.6109C128.43 17.4388 128.43 17.2667 128.43 17.0946V17.0372V16.9798C128.43 16.8078 128.43 16.6357 128.372 16.4636L128.198 15.9473V15.8899L128.025 15.5457C127.989 15.4979 127.955 15.4525 127.923 15.4091C127.8 15.2445 127.699 15.1083 127.562 14.9721C126.983 14.4558 126.347 14.169 125.653 14.169H125.537H108.182H100.314V10.9566L101.818 9.40775L107.603 3.26977L110.843 6.19535L107.777 9.40775H125.537C126.868 9.40775 128.141 9.75194 129.298 10.4403C130.455 11.1287 131.322 12.0465 132.017 13.1938Z"
            fill="#2DA771"
            fill-rule="evenodd"
    />
</svg>