<svg width="48" height="47" viewBox="0 0 48 47" fill="none" xmlns="http://www.w3.org/2000/svg">
    <g filter="url(#filter0_d_1601_3357)">
        <path d="M8.65519 1.50464C4.50907 1.50464 1.14209 4.71631 1.14209 8.67119V36.7004C1.14209 41.3984 5.14907 45.2471 10.1022 45.2471H17.1144C22.8466 45.2471 27.5214 40.788 27.5214 35.3201V20.0846H46.9998V19.1025C46.9998 9.41439 38.7354 1.53118 28.5788 1.53118H8.65519V1.50464Z" fill="#2DA771"/>
        <path d="M40.0709 26.5875H15.5559C15.5559 22.9511 18.6446 20.0049 22.4568 20.0049H46.9718C46.9718 23.6412 43.8831 26.5875 40.0709 26.5875Z" fill="url(#paint0_linear_1601_3357)"/>
    </g>
    <path opacity="0.35" d="M15.5 17C12.475 17 10 14.525 10 11.5C10 8.475 12.475 6 15.5 6C18.525 6 21 8.475 21 11.5C21 14.525 18.525 17 15.5 17Z" fill="#060A00"/>
    <path opacity="0.35" d="M16 15C18.2091 15 20 13.433 20 11.5C20 9.567 18.2091 8 16 8C13.7909 8 12 9.567 12 11.5C12 13.433 13.7909 15 16 15Z" fill="#060A00"/>
    <defs>
        <filter id="filter0_d_1601_3357" x="0.14209" y="0.504639" width="47.8577" height="45.7424" filterUnits="userSpaceOnUse" color-interpolation-filters="sRGB">
            <feFlood flood-opacity="0" result="BackgroundImageFix"/>
            <feColorMatrix in="SourceAlpha" type="matrix" values="0 0 0 0 0 0 0 0 0 0 0 0 0 0 0 0 0 0 127 0" result="hardAlpha"/>
            <feOffset/>
            <feGaussianBlur stdDeviation="0.5"/>
            <feComposite in2="hardAlpha" operator="out"/>
            <feColorMatrix type="matrix" values="0 0 0 0 0 0 0 0 0 0 0 0 0 0 0 0 0 0 0.31 0"/>
            <feBlend mode="normal" in2="BackgroundImageFix" result="effect1_dropShadow_1601_3357"/>
            <feBlend mode="normal" in="SourceGraphic" in2="effect1_dropShadow_1601_3357" result="shape"/>
        </filter>
        <linearGradient id="paint0_linear_1601_3357" x1="31.2638" y1="20.0049" x2="31.2638" y2="26.5875" gradientUnits="userSpaceOnUse">
            <stop stop-color="#FFD100"/>
            <stop offset="1" stop-color="#FFB800"/>
        </linearGradient>
    </defs>
</svg>
