<svg width="435" height="413" fill="none" xmlns="http://www.w3.org/2000/svg"><g clip-path="url(#a)" fill="#B7B7B7" fill-opacity=".43"><path d="M423.7 5.056c0 2.792 2.373 5.056 5.3 5.056 2.927 0 5.3-2.264 5.3-5.056C434.3 2.264 431.927 0 429 0c-2.927 0-5.3 2.264-5.3 5.056ZM423.7 38.635c0 2.792 2.373 5.055 5.3 5.055 2.927 0 5.3-2.263 5.3-5.055 0-2.793-2.373-5.056-5.3-5.056-2.927 0-5.3 2.263-5.3 5.056ZM423.7 72.213c0 2.792 2.373 5.056 5.3 5.056 2.927 0 5.3-2.264 5.3-5.056 0-2.792-2.373-5.056-5.3-5.056-2.927 0-5.3 2.264-5.3 5.056ZM423.7 105.791c0 2.793 2.373 5.056 5.3 5.056 2.927 0 5.3-2.263 5.3-5.056 0-2.792-2.373-5.055-5.3-5.055-2.927 0-5.3 2.263-5.3 5.055ZM423.7 139.274c0 2.793 2.373 5.056 5.3 5.056 2.927 0 5.3-2.263 5.3-5.056 0-2.792-2.373-5.055-5.3-5.055-2.927 0-5.3 2.263-5.3 5.055ZM423.7 172.853c0 2.792 2.373 5.056 5.3 5.056 2.927 0 5.3-2.264 5.3-5.056 0-2.792-2.373-5.056-5.3-5.056-2.927 0-5.3 2.264-5.3 5.056ZM423.7 206.431c0 2.793 2.373 5.056 5.3 5.056 2.927 0 5.3-2.263 5.3-5.056 0-2.792-2.373-5.056-5.3-5.056-2.927 0-5.3 2.264-5.3 5.056ZM423.7 239.915c0 2.792 2.373 5.055 5.3 5.055 2.927 0 5.3-2.263 5.3-5.055 0-2.793-2.373-5.056-5.3-5.056-2.927 0-5.3 2.263-5.3 5.056ZM423.7 273.493c0 2.792 2.373 5.056 5.3 5.056 2.927 0 5.3-2.264 5.3-5.056 0-2.792-2.373-5.056-5.3-5.056-2.927 0-5.3 2.264-5.3 5.056ZM423.7 307.071c0 2.793 2.373 5.056 5.3 5.056 2.927 0 5.3-2.263 5.3-5.056 0-2.792-2.373-5.055-5.3-5.055-2.927 0-5.3 2.263-5.3 5.055ZM423.7 340.555c0 2.792 2.373 5.055 5.3 5.055 2.927 0 5.3-2.263 5.3-5.055 0-2.793-2.373-5.056-5.3-5.056-2.927 0-5.3 2.263-5.3 5.056ZM423.7 374.133c0 2.793 2.373 5.056 5.3 5.056 2.927 0 5.3-2.263 5.3-5.056 0-2.792-2.373-5.056-5.3-5.056-2.927 0-5.3 2.264-5.3 5.056ZM423.7 407.712c0 2.792 2.373 5.055 5.3 5.055 2.927 0 5.3-2.263 5.3-5.055 0-2.793-2.373-5.056-5.3-5.056-2.927 0-5.3 2.263-5.3 5.056ZM389.9 5.056c0 2.792 2.373 5.056 5.3 5.056 2.927 0 5.3-2.264 5.3-5.056 0-2.792-2.373-5.056-5.3-5.056-2.927 0-5.3 2.264-5.3 5.056ZM389.9 38.635c0 2.792 2.373 5.055 5.3 5.055 2.927 0 5.3-2.263 5.3-5.055 0-2.793-2.373-5.056-5.3-5.056-2.927 0-5.3 2.263-5.3 5.056ZM389.9 72.213c0 2.792 2.373 5.056 5.3 5.056 2.927 0 5.3-2.264 5.3-5.056 0-2.792-2.373-5.056-5.3-5.056-2.927 0-5.3 2.264-5.3 5.056ZM389.9 105.791c0 2.793 2.373 5.056 5.3 5.056 2.927 0 5.3-2.263 5.3-5.056 0-2.792-2.373-5.055-5.3-5.055-2.927 0-5.3 2.263-5.3 5.055ZM389.9 139.274c0 2.793 2.373 5.056 5.3 5.056 2.927 0 5.3-2.263 5.3-5.056 0-2.792-2.373-5.055-5.3-5.055-2.927 0-5.3 2.263-5.3 5.055ZM389.9 172.853c0 2.792 2.373 5.056 5.3 5.056 2.927 0 5.3-2.264 5.3-5.056 0-2.792-2.373-5.056-5.3-5.056-2.927 0-5.3 2.264-5.3 5.056ZM389.9 206.431c0 2.793 2.373 5.056 5.3 5.056 2.927 0 5.3-2.263 5.3-5.056 0-2.792-2.373-5.056-5.3-5.056-2.927 0-5.3 2.264-5.3 5.056ZM389.9 239.915c0 2.792 2.373 5.055 5.3 5.055 2.927 0 5.3-2.263 5.3-5.055 0-2.793-2.373-5.056-5.3-5.056-2.927 0-5.3 2.263-5.3 5.056ZM389.9 273.493c0 2.792 2.373 5.056 5.3 5.056 2.927 0 5.3-2.264 5.3-5.056 0-2.792-2.373-5.056-5.3-5.056-2.927 0-5.3 2.264-5.3 5.056ZM389.9 307.071c0 2.793 2.373 5.056 5.3 5.056 2.927 0 5.3-2.263 5.3-5.056 0-2.792-2.373-5.055-5.3-5.055-2.927 0-5.3 2.263-5.3 5.055ZM389.9 340.555c0 2.792 2.373 5.055 5.3 5.055 2.927 0 5.3-2.263 5.3-5.055 0-2.793-2.373-5.056-5.3-5.056-2.927 0-5.3 2.263-5.3 5.056ZM389.9 374.133c0 2.793 2.373 5.056 5.3 5.056 2.927 0 5.3-2.263 5.3-5.056 0-2.792-2.373-5.056-5.3-5.056-2.927 0-5.3 2.264-5.3 5.056ZM389.9 407.712c0 2.792 2.373 5.055 5.3 5.055 2.927 0 5.3-2.263 5.3-5.055 0-2.793-2.373-5.056-5.3-5.056-2.927 0-5.3 2.263-5.3 5.056ZM356.2 5.056c0 2.792 2.373 5.056 5.3 5.056 2.927 0 5.3-2.264 5.3-5.056 0-2.792-2.373-5.056-5.3-5.056-2.927 0-5.3 2.264-5.3 5.056ZM356.2 38.635c0 2.792 2.373 5.055 5.3 5.055 2.927 0 5.3-2.263 5.3-5.055 0-2.793-2.373-5.056-5.3-5.056-2.927 0-5.3 2.263-5.3 5.056ZM356.2 72.213c0 2.792 2.373 5.056 5.3 5.056 2.927 0 5.3-2.264 5.3-5.056 0-2.792-2.373-5.056-5.3-5.056-2.927 0-5.3 2.264-5.3 5.056ZM356.2 105.791c0 2.793 2.373 5.056 5.3 5.056 2.927 0 5.3-2.263 5.3-5.056 0-2.792-2.373-5.055-5.3-5.055-2.927 0-5.3 2.263-5.3 5.055ZM356.2 139.274c0 2.793 2.373 5.056 5.3 5.056 2.927 0 5.3-2.263 5.3-5.056 0-2.792-2.373-5.055-5.3-5.055-2.927 0-5.3 2.263-5.3 5.055ZM356.2 172.853c0 2.792 2.373 5.056 5.3 5.056 2.927 0 5.3-2.264 5.3-5.056 0-2.792-2.373-5.056-5.3-5.056-2.927 0-5.3 2.264-5.3 5.056ZM356.2 206.431c0 2.793 2.373 5.056 5.3 5.056 2.927 0 5.3-2.263 5.3-5.056 0-2.792-2.373-5.056-5.3-5.056-2.927 0-5.3 2.264-5.3 5.056ZM356.2 239.915c0 2.792 2.373 5.055 5.3 5.055 2.927 0 5.3-2.263 5.3-5.055 0-2.793-2.373-5.056-5.3-5.056-2.927 0-5.3 2.263-5.3 5.056ZM356.2 273.493c0 2.792 2.373 5.056 5.3 5.056 2.927 0 5.3-2.264 5.3-5.056 0-2.792-2.373-5.056-5.3-5.056-2.927 0-5.3 2.264-5.3 5.056ZM356.2 307.071c0 2.793 2.373 5.056 5.3 5.056 2.927 0 5.3-2.263 5.3-5.056 0-2.792-2.373-5.055-5.3-5.055-2.927 0-5.3 2.263-5.3 5.055ZM356.2 340.555c0 2.792 2.373 5.055 5.3 5.055 2.927 0 5.3-2.263 5.3-5.055 0-2.793-2.373-5.056-5.3-5.056-2.927 0-5.3 2.263-5.3 5.056ZM356.2 374.133c0 2.793 2.373 5.056 5.3 5.056 2.927 0 5.3-2.263 5.3-5.056 0-2.792-2.373-5.056-5.3-5.056-2.927 0-5.3 2.264-5.3 5.056ZM356.2 407.712c0 2.792 2.373 5.055 5.3 5.055 2.927 0 5.3-2.263 5.3-5.055 0-2.793-2.373-5.056-5.3-5.056-2.927 0-5.3 2.263-5.3 5.056ZM322.4 5.056c0 2.792 2.373 5.056 5.3 5.056 2.927 0 5.3-2.264 5.3-5.056C333 2.264 330.627 0 327.7 0c-2.927 0-5.3 2.264-5.3 5.056ZM322.4 38.635c0 2.792 2.373 5.055 5.3 5.055 2.927 0 5.3-2.263 5.3-5.055 0-2.793-2.373-5.056-5.3-5.056-2.927 0-5.3 2.263-5.3 5.056ZM322.4 72.213c0 2.792 2.373 5.056 5.3 5.056 2.927 0 5.3-2.264 5.3-5.056 0-2.792-2.373-5.056-5.3-5.056-2.927 0-5.3 2.264-5.3 5.056ZM322.4 105.791c0 2.793 2.373 5.056 5.3 5.056 2.927 0 5.3-2.263 5.3-5.056 0-2.792-2.373-5.055-5.3-5.055-2.927 0-5.3 2.263-5.3 5.055ZM322.4 139.274c0 2.793 2.373 5.056 5.3 5.056 2.927 0 5.3-2.263 5.3-5.056 0-2.792-2.373-5.055-5.3-5.055-2.927 0-5.3 2.263-5.3 5.055ZM322.4 172.853c0 2.792 2.373 5.056 5.3 5.056 2.927 0 5.3-2.264 5.3-5.056 0-2.792-2.373-5.056-5.3-5.056-2.927 0-5.3 2.264-5.3 5.056ZM322.4 206.431c0 2.793 2.373 5.056 5.3 5.056 2.927 0 5.3-2.263 5.3-5.056 0-2.792-2.373-5.056-5.3-5.056-2.927 0-5.3 2.264-5.3 5.056ZM322.4 239.915c0 2.792 2.373 5.055 5.3 5.055 2.927 0 5.3-2.263 5.3-5.055 0-2.793-2.373-5.056-5.3-5.056-2.927 0-5.3 2.263-5.3 5.056ZM322.4 273.493c0 2.792 2.373 5.056 5.3 5.056 2.927 0 5.3-2.264 5.3-5.056 0-2.792-2.373-5.056-5.3-5.056-2.927 0-5.3 2.264-5.3 5.056ZM322.4 307.071c0 2.793 2.373 5.056 5.3 5.056 2.927 0 5.3-2.263 5.3-5.056 0-2.792-2.373-5.055-5.3-5.055-2.927 0-5.3 2.263-5.3 5.055ZM322.4 340.555c0 2.792 2.373 5.055 5.3 5.055 2.927 0 5.3-2.263 5.3-5.055 0-2.793-2.373-5.056-5.3-5.056-2.927 0-5.3 2.263-5.3 5.056ZM322.4 374.133c0 2.793 2.373 5.056 5.3 5.056 2.927 0 5.3-2.263 5.3-5.056 0-2.792-2.373-5.056-5.3-5.056-2.927 0-5.3 2.264-5.3 5.056ZM322.4 407.712c0 2.792 2.373 5.055 5.3 5.055 2.927 0 5.3-2.263 5.3-5.055 0-2.793-2.373-5.056-5.3-5.056-2.927 0-5.3 2.263-5.3 5.056ZM288.7 5.056c0 2.792 2.373 5.056 5.3 5.056 2.927 0 5.3-2.264 5.3-5.056C299.3 2.264 296.927 0 294 0c-2.927 0-5.3 2.264-5.3 5.056ZM288.7 38.635c0 2.792 2.373 5.055 5.3 5.055 2.927 0 5.3-2.263 5.3-5.055 0-2.793-2.373-5.056-5.3-5.056-2.927 0-5.3 2.263-5.3 5.056ZM288.7 72.213c0 2.792 2.373 5.056 5.3 5.056 2.927 0 5.3-2.264 5.3-5.056 0-2.792-2.373-5.056-5.3-5.056-2.927 0-5.3 2.264-5.3 5.056ZM288.7 105.791c0 2.793 2.373 5.056 5.3 5.056 2.927 0 5.3-2.263 5.3-5.056 0-2.792-2.373-5.055-5.3-5.055-2.927 0-5.3 2.263-5.3 5.055ZM288.7 139.274c0 2.793 2.373 5.056 5.3 5.056 2.927 0 5.3-2.263 5.3-5.056 0-2.792-2.373-5.055-5.3-5.055-2.927 0-5.3 2.263-5.3 5.055ZM288.7 172.853c0 2.792 2.373 5.056 5.3 5.056 2.927 0 5.3-2.264 5.3-5.056 0-2.792-2.373-5.056-5.3-5.056-2.927 0-5.3 2.264-5.3 5.056ZM288.7 206.431c0 2.793 2.373 5.056 5.3 5.056 2.927 0 5.3-2.263 5.3-5.056 0-2.792-2.373-5.056-5.3-5.056-2.927 0-5.3 2.264-5.3 5.056ZM288.7 239.914c0 2.793 2.373 5.056 5.3 5.056 2.927 0 5.3-2.263 5.3-5.056 0-2.792-2.373-5.055-5.3-5.055-2.927 0-5.3 2.263-5.3 5.055ZM288.7 273.493c0 2.792 2.373 5.056 5.3 5.056 2.927 0 5.3-2.264 5.3-5.056 0-2.792-2.373-5.056-5.3-5.056-2.927 0-5.3 2.264-5.3 5.056ZM288.7 307.071c0 2.793 2.373 5.056 5.3 5.056 2.927 0 5.3-2.263 5.3-5.056 0-2.792-2.373-5.055-5.3-5.055-2.927 0-5.3 2.263-5.3 5.055ZM288.7 340.555c0 2.792 2.373 5.055 5.3 5.055 2.927 0 5.3-2.263 5.3-5.055 0-2.793-2.373-5.056-5.3-5.056-2.927 0-5.3 2.263-5.3 5.056ZM288.7 374.133c0 2.793 2.373 5.056 5.3 5.056 2.927 0 5.3-2.263 5.3-5.056 0-2.792-2.373-5.056-5.3-5.056-2.927 0-5.3 2.264-5.3 5.056ZM288.7 407.712c0 2.792 2.373 5.055 5.3 5.055 2.927 0 5.3-2.263 5.3-5.055 0-2.793-2.373-5.056-5.3-5.056-2.927 0-5.3 2.263-5.3 5.056ZM254.9 5.056c0 2.792 2.373 5.056 5.3 5.056 2.927 0 5.3-2.264 5.3-5.056 0-2.792-2.373-5.056-5.3-5.056-2.927 0-5.3 2.264-5.3 5.056ZM254.9 38.635c0 2.792 2.373 5.055 5.3 5.055 2.927 0 5.3-2.263 5.3-5.055 0-2.793-2.373-5.056-5.3-5.056-2.927 0-5.3 2.263-5.3 5.056ZM254.9 72.213c0 2.792 2.373 5.056 5.3 5.056 2.927 0 5.3-2.264 5.3-5.056 0-2.792-2.373-5.056-5.3-5.056-2.927 0-5.3 2.264-5.3 5.056ZM254.9 105.791c0 2.793 2.373 5.056 5.3 5.056 2.927 0 5.3-2.263 5.3-5.056 0-2.792-2.373-5.055-5.3-5.055-2.927 0-5.3 2.263-5.3 5.055ZM254.9 139.274c0 2.793 2.373 5.056 5.3 5.056 2.927 0 5.3-2.263 5.3-5.056 0-2.792-2.373-5.055-5.3-5.055-2.927 0-5.3 2.263-5.3 5.055ZM254.9 172.853c0 2.792 2.373 5.056 5.3 5.056 2.927 0 5.3-2.264 5.3-5.056 0-2.792-2.373-5.056-5.3-5.056-2.927 0-5.3 2.264-5.3 5.056ZM254.9 206.431c0 2.793 2.373 5.056 5.3 5.056 2.927 0 5.3-2.263 5.3-5.056 0-2.792-2.373-5.056-5.3-5.056-2.927 0-5.3 2.264-5.3 5.056ZM254.9 239.914c0 2.793 2.373 5.056 5.3 5.056 2.927 0 5.3-2.263 5.3-5.056 0-2.792-2.373-5.055-5.3-5.055-2.927 0-5.3 2.263-5.3 5.055ZM254.9 273.493c0 2.792 2.373 5.056 5.3 5.056 2.927 0 5.3-2.264 5.3-5.056 0-2.792-2.373-5.056-5.3-5.056-2.927 0-5.3 2.264-5.3 5.056ZM254.9 307.071c0 2.793 2.373 5.056 5.3 5.056 2.927 0 5.3-2.263 5.3-5.056 0-2.792-2.373-5.055-5.3-5.055-2.927 0-5.3 2.263-5.3 5.055ZM254.9 340.555c0 2.792 2.373 5.055 5.3 5.055 2.927 0 5.3-2.263 5.3-5.055 0-2.793-2.373-5.056-5.3-5.056-2.927 0-5.3 2.263-5.3 5.056ZM254.9 374.133c0 2.793 2.373 5.056 5.3 5.056 2.927 0 5.3-2.263 5.3-5.056 0-2.792-2.373-5.056-5.3-5.056-2.927 0-5.3 2.264-5.3 5.056ZM254.9 407.712c0 2.792 2.373 5.055 5.3 5.055 2.927 0 5.3-2.263 5.3-5.055 0-2.793-2.373-5.056-5.3-5.056-2.927 0-5.3 2.263-5.3 5.056ZM221.2 5.056c0 2.792 2.373 5.056 5.3 5.056 2.927 0 5.3-2.264 5.3-5.056 0-2.792-2.373-5.056-5.3-5.056-2.927 0-5.3 2.264-5.3 5.056ZM221.2 38.635c0 2.792 2.373 5.055 5.3 5.055 2.927 0 5.3-2.263 5.3-5.055 0-2.793-2.373-5.056-5.3-5.056-2.927 0-5.3 2.263-5.3 5.056ZM221.2 72.213c0 2.792 2.373 5.056 5.3 5.056 2.927 0 5.3-2.264 5.3-5.056 0-2.792-2.373-5.056-5.3-5.056-2.927 0-5.3 2.264-5.3 5.056ZM221.2 105.791c0 2.793 2.373 5.056 5.3 5.056 2.927 0 5.3-2.263 5.3-5.056 0-2.792-2.373-5.055-5.3-5.055-2.927 0-5.3 2.263-5.3 5.055ZM221.2 139.274c0 2.793 2.373 5.056 5.3 5.056 2.927 0 5.3-2.263 5.3-5.056 0-2.792-2.373-5.055-5.3-5.055-2.927 0-5.3 2.263-5.3 5.055ZM221.2 172.853c0 2.792 2.373 5.056 5.3 5.056 2.927 0 5.3-2.264 5.3-5.056 0-2.792-2.373-5.056-5.3-5.056-2.927 0-5.3 2.264-5.3 5.056ZM221.2 206.431c0 2.793 2.373 5.056 5.3 5.056 2.927 0 5.3-2.263 5.3-5.056 0-2.792-2.373-5.056-5.3-5.056-2.927 0-5.3 2.264-5.3 5.056ZM221.2 239.914c0 2.793 2.373 5.056 5.3 5.056 2.927 0 5.3-2.263 5.3-5.056 0-2.792-2.373-5.055-5.3-5.055-2.927 0-5.3 2.263-5.3 5.055ZM221.2 273.493c0 2.792 2.373 5.056 5.3 5.056 2.927 0 5.3-2.264 5.3-5.056 0-2.792-2.373-5.056-5.3-5.056-2.927 0-5.3 2.264-5.3 5.056ZM221.2 307.071c0 2.793 2.373 5.056 5.3 5.056 2.927 0 5.3-2.263 5.3-5.056 0-2.792-2.373-5.055-5.3-5.055-2.927 0-5.3 2.263-5.3 5.055ZM221.2 340.555c0 2.792 2.373 5.055 5.3 5.055 2.927 0 5.3-2.263 5.3-5.055 0-2.793-2.373-5.056-5.3-5.056-2.927 0-5.3 2.263-5.3 5.056ZM221.2 374.133c0 2.793 2.373 5.056 5.3 5.056 2.927 0 5.3-2.263 5.3-5.056 0-2.792-2.373-5.056-5.3-5.056-2.927 0-5.3 2.264-5.3 5.056ZM221.2 407.712c0 2.792 2.373 5.055 5.3 5.055 2.927 0 5.3-2.263 5.3-5.055 0-2.793-2.373-5.056-5.3-5.056-2.927 0-5.3 2.263-5.3 5.056ZM187.5 5.056c0 2.792 2.372 5.056 5.3 5.056 2.927 0 5.3-2.264 5.3-5.056 0-2.792-2.373-5.056-5.3-5.056-2.928 0-5.3 2.264-5.3 5.056ZM187.5 38.635c0 2.792 2.372 5.055 5.3 5.055 2.927 0 5.3-2.263 5.3-5.055 0-2.793-2.373-5.056-5.3-5.056-2.928 0-5.3 2.263-5.3 5.056ZM187.5 72.213c0 2.792 2.372 5.056 5.3 5.056 2.927 0 5.3-2.264 5.3-5.056 0-2.792-2.373-5.056-5.3-5.056-2.928 0-5.3 2.264-5.3 5.056ZM187.5 105.791c0 2.793 2.372 5.056 5.3 5.056 2.927 0 5.3-2.263 5.3-5.056 0-2.792-2.373-5.055-5.3-5.055-2.928 0-5.3 2.263-5.3 5.055ZM187.5 139.274c0 2.793 2.372 5.056 5.3 5.056 2.927 0 5.3-2.263 5.3-5.056 0-2.792-2.373-5.055-5.3-5.055-2.928 0-5.3 2.263-5.3 5.055ZM187.5 172.853c0 2.792 2.372 5.056 5.3 5.056 2.927 0 5.3-2.264 5.3-5.056 0-2.792-2.373-5.056-5.3-5.056-2.928 0-5.3 2.264-5.3 5.056ZM187.5 206.431c0 2.793 2.372 5.056 5.3 5.056 2.927 0 5.3-2.263 5.3-5.056 0-2.792-2.373-5.056-5.3-5.056-2.928 0-5.3 2.264-5.3 5.056ZM187.5 239.914c0 2.793 2.372 5.056 5.3 5.056 2.927 0 5.3-2.263 5.3-5.056 0-2.792-2.373-5.055-5.3-5.055-2.928 0-5.3 2.263-5.3 5.055ZM187.5 273.493c0 2.792 2.372 5.056 5.3 5.056 2.927 0 5.3-2.264 5.3-5.056 0-2.792-2.373-5.056-5.3-5.056-2.928 0-5.3 2.264-5.3 5.056ZM187.5 307.071c0 2.793 2.372 5.056 5.3 5.056 2.927 0 5.3-2.263 5.3-5.056 0-2.792-2.373-5.055-5.3-5.055-2.928 0-5.3 2.263-5.3 5.055ZM187.5 340.555c0 2.792 2.372 5.055 5.3 5.055 2.927 0 5.3-2.263 5.3-5.055 0-2.793-2.373-5.056-5.3-5.056-2.928 0-5.3 2.263-5.3 5.056ZM187.5 374.133c0 2.793 2.372 5.056 5.3 5.056 2.927 0 5.3-2.263 5.3-5.056 0-2.792-2.373-5.056-5.3-5.056-2.928 0-5.3 2.264-5.3 5.056ZM187.5 407.712c0 2.792 2.372 5.055 5.3 5.055 2.927 0 5.3-2.263 5.3-5.055 0-2.793-2.373-5.056-5.3-5.056-2.928 0-5.3 2.263-5.3 5.056ZM153.7 5.056c0 2.792 2.373 5.056 5.3 5.056 2.927 0 5.3-2.264 5.3-5.056C164.3 2.264 161.927 0 159 0c-2.927 0-5.3 2.264-5.3 5.056ZM153.7 38.635c0 2.792 2.373 5.055 5.3 5.055 2.927 0 5.3-2.263 5.3-5.055 0-2.793-2.373-5.056-5.3-5.056-2.927 0-5.3 2.263-5.3 5.056ZM153.7 72.213c0 2.792 2.373 5.056 5.3 5.056 2.927 0 5.3-2.264 5.3-5.056 0-2.792-2.373-5.056-5.3-5.056-2.927 0-5.3 2.264-5.3 5.056ZM153.7 105.791c0 2.793 2.373 5.056 5.3 5.056 2.927 0 5.3-2.263 5.3-5.056 0-2.792-2.373-5.055-5.3-5.055-2.927 0-5.3 2.263-5.3 5.055ZM153.7 139.274c0 2.793 2.373 5.056 5.3 5.056 2.927 0 5.3-2.263 5.3-5.056 0-2.792-2.373-5.055-5.3-5.055-2.927 0-5.3 2.263-5.3 5.055ZM153.7 172.853c0 2.792 2.373 5.056 5.3 5.056 2.927 0 5.3-2.264 5.3-5.056 0-2.792-2.373-5.056-5.3-5.056-2.927 0-5.3 2.264-5.3 5.056ZM153.7 206.431c0 2.793 2.373 5.056 5.3 5.056 2.927 0 5.3-2.263 5.3-5.056 0-2.792-2.373-5.056-5.3-5.056-2.927 0-5.3 2.264-5.3 5.056ZM153.7 239.914c0 2.793 2.373 5.056 5.3 5.056 2.927 0 5.3-2.263 5.3-5.056 0-2.792-2.373-5.055-5.3-5.055-2.927 0-5.3 2.263-5.3 5.055ZM153.7 273.493c0 2.792 2.373 5.056 5.3 5.056 2.927 0 5.3-2.264 5.3-5.056 0-2.792-2.373-5.056-5.3-5.056-2.927 0-5.3 2.264-5.3 5.056ZM153.7 307.071c0 2.793 2.373 5.056 5.3 5.056 2.927 0 5.3-2.263 5.3-5.056 0-2.792-2.373-5.055-5.3-5.055-2.927 0-5.3 2.263-5.3 5.055ZM153.7 340.555c0 2.792 2.373 5.055 5.3 5.055 2.927 0 5.3-2.263 5.3-5.055 0-2.793-2.373-5.056-5.3-5.056-2.927 0-5.3 2.263-5.3 5.056ZM153.7 374.133c0 2.793 2.373 5.056 5.3 5.056 2.927 0 5.3-2.263 5.3-5.056 0-2.792-2.373-5.056-5.3-5.056-2.927 0-5.3 2.264-5.3 5.056ZM153.7 407.712c0 2.792 2.373 5.055 5.3 5.055 2.927 0 5.3-2.263 5.3-5.055 0-2.793-2.373-5.056-5.3-5.056-2.927 0-5.3 2.263-5.3 5.056ZM120 5.056c0 2.792 2.373 5.056 5.3 5.056 2.927 0 5.3-2.264 5.3-5.056 0-2.792-2.373-5.056-5.3-5.056-2.927 0-5.3 2.264-5.3 5.056ZM120 38.634c0 2.792 2.373 5.056 5.3 5.056 2.927 0 5.3-2.264 5.3-5.056 0-2.792-2.373-5.056-5.3-5.056-2.927 0-5.3 2.264-5.3 5.056ZM120 72.213c0 2.792 2.373 5.056 5.3 5.056 2.927 0 5.3-2.264 5.3-5.056 0-2.792-2.373-5.056-5.3-5.056-2.927 0-5.3 2.264-5.3 5.056ZM120 105.791c0 2.793 2.373 5.056 5.3 5.056 2.927 0 5.3-2.263 5.3-5.056 0-2.792-2.373-5.055-5.3-5.055-2.927 0-5.3 2.263-5.3 5.055ZM120 139.274c0 2.793 2.373 5.056 5.3 5.056 2.927 0 5.3-2.263 5.3-5.056 0-2.792-2.373-5.055-5.3-5.055-2.927 0-5.3 2.263-5.3 5.055ZM120 172.853c0 2.792 2.373 5.056 5.3 5.056 2.927 0 5.3-2.264 5.3-5.056 0-2.792-2.373-5.056-5.3-5.056-2.927 0-5.3 2.264-5.3 5.056ZM120 206.431c0 2.793 2.373 5.056 5.3 5.056 2.927 0 5.3-2.263 5.3-5.056 0-2.792-2.373-5.056-5.3-5.056-2.927 0-5.3 2.264-5.3 5.056ZM120 239.914c0 2.793 2.373 5.056 5.3 5.056 2.927 0 5.3-2.263 5.3-5.056 0-2.792-2.373-5.055-5.3-5.055-2.927 0-5.3 2.263-5.3 5.055ZM120 273.493c0 2.792 2.373 5.056 5.3 5.056 2.927 0 5.3-2.264 5.3-5.056 0-2.792-2.373-5.056-5.3-5.056-2.927 0-5.3 2.264-5.3 5.056ZM120 307.071c0 2.793 2.373 5.056 5.3 5.056 2.927 0 5.3-2.263 5.3-5.056 0-2.792-2.373-5.055-5.3-5.055-2.927 0-5.3 2.263-5.3 5.055ZM120 340.555c0 2.792 2.373 5.055 5.3 5.055 2.927 0 5.3-2.263 5.3-5.055 0-2.793-2.373-5.056-5.3-5.056-2.927 0-5.3 2.263-5.3 5.056ZM120 374.133c0 2.793 2.373 5.056 5.3 5.056 2.927 0 5.3-2.263 5.3-5.056 0-2.792-2.373-5.056-5.3-5.056-2.927 0-5.3 2.264-5.3 5.056ZM120 407.712c0 2.792 2.373 5.055 5.3 5.055 2.927 0 5.3-2.263 5.3-5.055 0-2.793-2.373-5.056-5.3-5.056-2.927 0-5.3 2.263-5.3 5.056ZM86.2 5.056c0 2.792 2.373 5.056 5.3 5.056 2.927 0 5.3-2.264 5.3-5.056C96.8 2.264 94.427 0 91.5 0c-2.927 0-5.3 2.264-5.3 5.056ZM86.2 38.634c0 2.792 2.373 5.056 5.3 5.056 2.927 0 5.3-2.264 5.3-5.056 0-2.792-2.373-5.056-5.3-5.056-2.927 0-5.3 2.264-5.3 5.056ZM86.2 72.213c0 2.792 2.373 5.056 5.3 5.056 2.927 0 5.3-2.264 5.3-5.056 0-2.792-2.373-5.056-5.3-5.056-2.927 0-5.3 2.264-5.3 5.056ZM86.2 105.791c0 2.793 2.373 5.056 5.3 5.056 2.927 0 5.3-2.263 5.3-5.056 0-2.792-2.373-5.055-5.3-5.055-2.927 0-5.3 2.263-5.3 5.055ZM86.2 139.274c0 2.793 2.373 5.056 5.3 5.056 2.927 0 5.3-2.263 5.3-5.056 0-2.792-2.373-5.055-5.3-5.055-2.927 0-5.3 2.263-5.3 5.055ZM86.2 172.853c0 2.792 2.373 5.056 5.3 5.056 2.927 0 5.3-2.264 5.3-5.056 0-2.792-2.373-5.056-5.3-5.056-2.927 0-5.3 2.264-5.3 5.056ZM86.2 206.431c0 2.793 2.373 5.056 5.3 5.056 2.927 0 5.3-2.263 5.3-5.056 0-2.792-2.373-5.056-5.3-5.056-2.927 0-5.3 2.264-5.3 5.056ZM86.2 239.914c0 2.793 2.373 5.056 5.3 5.056 2.927 0 5.3-2.263 5.3-5.056 0-2.792-2.373-5.055-5.3-5.055-2.927 0-5.3 2.263-5.3 5.055ZM86.2 273.493c0 2.792 2.373 5.056 5.3 5.056 2.927 0 5.3-2.264 5.3-5.056 0-2.792-2.373-5.056-5.3-5.056-2.927 0-5.3 2.264-5.3 5.056ZM86.2 307.071c0 2.793 2.373 5.056 5.3 5.056 2.927 0 5.3-2.263 5.3-5.056 0-2.792-2.373-5.055-5.3-5.055-2.927 0-5.3 2.263-5.3 5.055ZM86.2 340.555c0 2.792 2.373 5.055 5.3 5.055 2.927 0 5.3-2.263 5.3-5.055 0-2.793-2.373-5.056-5.3-5.056-2.927 0-5.3 2.263-5.3 5.056ZM86.2 374.133c0 2.793 2.373 5.056 5.3 5.056 2.927 0 5.3-2.263 5.3-5.056 0-2.792-2.373-5.056-5.3-5.056-2.927 0-5.3 2.264-5.3 5.056ZM86.2 407.712c0 2.792 2.373 5.055 5.3 5.055 2.927 0 5.3-2.263 5.3-5.055 0-2.793-2.373-5.056-5.3-5.056-2.927 0-5.3 2.263-5.3 5.056ZM52.5 5.056c0 2.792 2.373 5.056 5.3 5.056 2.927 0 5.3-2.264 5.3-5.056C63.1 2.264 60.727 0 57.8 0c-2.927 0-5.3 2.264-5.3 5.056ZM52.5 38.634c0 2.792 2.373 5.056 5.3 5.056 2.927 0 5.3-2.264 5.3-5.056 0-2.792-2.373-5.056-5.3-5.056-2.927 0-5.3 2.264-5.3 5.056ZM52.5 72.213c0 2.792 2.373 5.056 5.3 5.056 2.927 0 5.3-2.264 5.3-5.056 0-2.792-2.373-5.056-5.3-5.056-2.927 0-5.3 2.264-5.3 5.056ZM52.5 105.791c0 2.793 2.373 5.056 5.3 5.056 2.927 0 5.3-2.263 5.3-5.056 0-2.792-2.373-5.055-5.3-5.055-2.927 0-5.3 2.263-5.3 5.055ZM52.5 139.274c0 2.793 2.373 5.056 5.3 5.056 2.927 0 5.3-2.263 5.3-5.056 0-2.792-2.373-5.055-5.3-5.055-2.927 0-5.3 2.263-5.3 5.055ZM52.5 172.853c0 2.792 2.373 5.056 5.3 5.056 2.927 0 5.3-2.264 5.3-5.056 0-2.792-2.373-5.056-5.3-5.056-2.927 0-5.3 2.264-5.3 5.056ZM52.5 206.431c0 2.793 2.373 5.056 5.3 5.056 2.927 0 5.3-2.263 5.3-5.056 0-2.792-2.373-5.056-5.3-5.056-2.927 0-5.3 2.264-5.3 5.056ZM52.5 239.914c0 2.793 2.373 5.056 5.3 5.056 2.927 0 5.3-2.263 5.3-5.056 0-2.792-2.373-5.055-5.3-5.055-2.927 0-5.3 2.263-5.3 5.055ZM52.5 273.493c0 2.792 2.373 5.056 5.3 5.056 2.927 0 5.3-2.264 5.3-5.056 0-2.792-2.373-5.056-5.3-5.056-2.927 0-5.3 2.264-5.3 5.056ZM52.5 307.071c0 2.793 2.373 5.056 5.3 5.056 2.927 0 5.3-2.263 5.3-5.056 0-2.792-2.373-5.055-5.3-5.055-2.927 0-5.3 2.263-5.3 5.055ZM52.5 340.555c0 2.792 2.373 5.055 5.3 5.055 2.927 0 5.3-2.263 5.3-5.055 0-2.793-2.373-5.056-5.3-5.056-2.927 0-5.3 2.263-5.3 5.056ZM52.5 374.133c0 2.793 2.373 5.056 5.3 5.056 2.927 0 5.3-2.263 5.3-5.056 0-2.792-2.373-5.056-5.3-5.056-2.927 0-5.3 2.264-5.3 5.056ZM52.5 407.712c0 2.792 2.373 5.055 5.3 5.055 2.927 0 5.3-2.263 5.3-5.055 0-2.793-2.373-5.056-5.3-5.056-2.927 0-5.3 2.263-5.3 5.056ZM18.7 5.056c0 2.792 2.373 5.056 5.3 5.056 2.927 0 5.3-2.264 5.3-5.056C29.3 2.264 26.927 0 24 0c-2.927 0-5.3 2.264-5.3 5.056ZM18.7 38.634c0 2.792 2.373 5.056 5.3 5.056 2.927 0 5.3-2.264 5.3-5.056 0-2.792-2.373-5.056-5.3-5.056-2.927 0-5.3 2.264-5.3 5.056ZM18.7 72.213c0 2.792 2.373 5.056 5.3 5.056 2.927 0 5.3-2.264 5.3-5.056 0-2.792-2.373-5.056-5.3-5.056-2.927 0-5.3 2.264-5.3 5.056ZM18.7 105.791c0 2.793 2.373 5.056 5.3 5.056 2.927 0 5.3-2.263 5.3-5.056 0-2.792-2.373-5.055-5.3-5.055-2.927 0-5.3 2.263-5.3 5.055ZM18.7 139.274c0 2.793 2.373 5.056 5.3 5.056 2.927 0 5.3-2.263 5.3-5.056 0-2.792-2.373-5.055-5.3-5.055-2.927 0-5.3 2.263-5.3 5.055ZM18.7 172.853c0 2.792 2.373 5.056 5.3 5.056 2.927 0 5.3-2.264 5.3-5.056 0-2.792-2.373-5.056-5.3-5.056-2.927 0-5.3 2.264-5.3 5.056ZM18.7 206.431c0 2.793 2.373 5.056 5.3 5.056 2.927 0 5.3-2.263 5.3-5.056 0-2.792-2.373-5.056-5.3-5.056-2.927 0-5.3 2.264-5.3 5.056ZM18.7 239.914c0 2.793 2.373 5.056 5.3 5.056 2.927 0 5.3-2.263 5.3-5.056 0-2.792-2.373-5.055-5.3-5.055-2.927 0-5.3 2.263-5.3 5.055ZM18.7 273.493c0 2.792 2.373 5.056 5.3 5.056 2.927 0 5.3-2.264 5.3-5.056 0-2.792-2.373-5.056-5.3-5.056-2.927 0-5.3 2.264-5.3 5.056ZM18.7 307.071c0 2.793 2.373 5.056 5.3 5.056 2.927 0 5.3-2.263 5.3-5.056 0-2.792-2.373-5.055-5.3-5.055-2.927 0-5.3 2.263-5.3 5.055ZM18.7 340.555c0 2.792 2.373 5.055 5.3 5.055 2.927 0 5.3-2.263 5.3-5.055 0-2.793-2.373-5.056-5.3-5.056-2.927 0-5.3 2.263-5.3 5.056ZM18.7 374.133c0 2.793 2.373 5.056 5.3 5.056 2.927 0 5.3-2.263 5.3-5.056 0-2.792-2.373-5.056-5.3-5.056-2.927 0-5.3 2.264-5.3 5.056ZM18.7 407.712c0 2.792 2.373 5.055 5.3 5.055 2.927 0 5.3-2.263 5.3-5.055 0-2.793-2.373-5.056-5.3-5.056-2.927 0-5.3 2.263-5.3 5.056Z"/></g><defs><clipPath id="a"><path fill="#fff" transform="rotate(90 217.15 217.15)" d="M0 0h412.768v584.3H0z"/></clipPath></defs></svg>