<svg width="435" height="413" viewBox="0 0 435 413" fill="none" xmlns="http://www.w3.org/2000/svg">
<g clip-path="url(#clip0_1665_3360)">
<path d="M423.7 5.05585C423.7 7.84813 426.073 10.1117 429 10.1117C431.927 10.1117 434.3 7.84813 434.3 5.05585C434.3 2.26358 431.927 -9.89444e-08 429 -2.20998e-07C426.073 -3.43052e-07 423.7 2.26358 423.7 5.05585Z" fill="#B7B7B7" fill-opacity="0.43"/>
<path d="M423.7 38.6345C423.7 41.4267 426.073 43.6903 429 43.6903C431.927 43.6903 434.3 41.4267 434.3 38.6345C434.3 35.8422 431.927 33.5786 429 33.5786C426.073 33.5786 423.7 35.8422 423.7 38.6345Z" fill="#B7B7B7" fill-opacity="0.43"/>
<path d="M423.7 72.2128C423.7 75.0051 426.073 77.2687 429 77.2687C431.927 77.2687 434.3 75.0051 434.3 72.2128C434.3 69.4206 431.927 67.157 429 67.157C426.073 67.157 423.7 69.4206 423.7 72.2128Z" fill="#B7B7B7" fill-opacity="0.43"/>
<path d="M423.7 105.791C423.7 108.584 426.073 110.847 429 110.847C431.927 110.847 434.3 108.584 434.3 105.791C434.3 102.999 431.927 100.736 429 100.736C426.073 100.736 423.7 102.999 423.7 105.791Z" fill="#B7B7B7" fill-opacity="0.43"/>
<path d="M423.7 139.274C423.7 142.067 426.073 144.33 429 144.33C431.927 144.33 434.3 142.067 434.3 139.274C434.3 136.482 431.927 134.219 429 134.219C426.073 134.219 423.7 136.482 423.7 139.274Z" fill="#B7B7B7" fill-opacity="0.43"/>
<path d="M423.7 172.853C423.7 175.645 426.073 177.909 429 177.909C431.927 177.909 434.3 175.645 434.3 172.853C434.3 170.061 431.927 167.797 429 167.797C426.073 167.797 423.7 170.061 423.7 172.853Z" fill="#B7B7B7" fill-opacity="0.43"/>
<path d="M423.7 206.431C423.7 209.224 426.073 211.487 429 211.487C431.927 211.487 434.3 209.224 434.3 206.431C434.3 203.639 431.927 201.375 429 201.375C426.073 201.375 423.7 203.639 423.7 206.431Z" fill="#B7B7B7" fill-opacity="0.43"/>
<path d="M423.7 239.915C423.7 242.707 426.073 244.97 429 244.97C431.927 244.97 434.3 242.707 434.3 239.915C434.3 237.122 431.927 234.859 429 234.859C426.073 234.859 423.7 237.122 423.7 239.915Z" fill="#B7B7B7" fill-opacity="0.43"/>
<path d="M423.7 273.493C423.7 276.285 426.073 278.549 429 278.549C431.927 278.549 434.3 276.285 434.3 273.493C434.3 270.701 431.927 268.437 429 268.437C426.073 268.437 423.7 270.701 423.7 273.493Z" fill="#B7B7B7" fill-opacity="0.43"/>
<path d="M423.7 307.071C423.7 309.864 426.073 312.127 429 312.127C431.927 312.127 434.3 309.864 434.3 307.071C434.3 304.279 431.927 302.016 429 302.016C426.073 302.016 423.7 304.279 423.7 307.071Z" fill="#B7B7B7" fill-opacity="0.43"/>
<path d="M423.7 340.555C423.7 343.347 426.073 345.61 429 345.61C431.927 345.61 434.3 343.347 434.3 340.555C434.3 337.762 431.927 335.499 429 335.499C426.073 335.499 423.7 337.762 423.7 340.555Z" fill="#B7B7B7" fill-opacity="0.43"/>
<path d="M423.7 374.133C423.7 376.926 426.073 379.189 429 379.189C431.927 379.189 434.3 376.926 434.3 374.133C434.3 371.341 431.927 369.077 429 369.077C426.073 369.077 423.7 371.341 423.7 374.133Z" fill="#B7B7B7" fill-opacity="0.43"/>
<path d="M423.7 407.712C423.7 410.504 426.073 412.767 429 412.767C431.927 412.767 434.3 410.504 434.3 407.712C434.3 404.919 431.927 402.656 429 402.656C426.073 402.656 423.7 404.919 423.7 407.712Z" fill="#B7B7B7" fill-opacity="0.43"/>
<path d="M389.9 5.05585C389.9 7.84812 392.273 10.1117 395.2 10.1117C398.127 10.1117 400.5 7.84812 400.5 5.05585C400.5 2.26358 398.127 -9.89443e-08 395.2 -2.20998e-07C392.273 -3.43052e-07 389.9 2.26358 389.9 5.05585Z" fill="#B7B7B7" fill-opacity="0.43"/>
<path d="M389.9 38.6345C389.9 41.4267 392.273 43.6903 395.2 43.6903C398.127 43.6903 400.5 41.4267 400.5 38.6345C400.5 35.8422 398.127 33.5786 395.2 33.5786C392.273 33.5786 389.9 35.8422 389.9 38.6345Z" fill="#B7B7B7" fill-opacity="0.43"/>
<path d="M389.9 72.2128C389.9 75.0051 392.273 77.2687 395.2 77.2687C398.127 77.2687 400.5 75.0051 400.5 72.2128C400.5 69.4206 398.127 67.157 395.2 67.157C392.273 67.157 389.9 69.4206 389.9 72.2128Z" fill="#B7B7B7" fill-opacity="0.43"/>
<path d="M389.9 105.791C389.9 108.584 392.273 110.847 395.2 110.847C398.127 110.847 400.5 108.584 400.5 105.791C400.5 102.999 398.127 100.736 395.2 100.736C392.273 100.736 389.9 102.999 389.9 105.791Z" fill="#B7B7B7" fill-opacity="0.43"/>
<path d="M389.9 139.274C389.9 142.067 392.273 144.33 395.2 144.33C398.127 144.33 400.5 142.067 400.5 139.274C400.5 136.482 398.127 134.219 395.2 134.219C392.273 134.219 389.9 136.482 389.9 139.274Z" fill="#B7B7B7" fill-opacity="0.43"/>
<path d="M389.9 172.853C389.9 175.645 392.273 177.909 395.2 177.909C398.127 177.909 400.5 175.645 400.5 172.853C400.5 170.061 398.127 167.797 395.2 167.797C392.273 167.797 389.9 170.061 389.9 172.853Z" fill="#B7B7B7" fill-opacity="0.43"/>
<path d="M389.9 206.431C389.9 209.224 392.273 211.487 395.2 211.487C398.127 211.487 400.5 209.224 400.5 206.431C400.5 203.639 398.127 201.375 395.2 201.375C392.273 201.375 389.9 203.639 389.9 206.431Z" fill="#B7B7B7" fill-opacity="0.43"/>
<path d="M389.9 239.915C389.9 242.707 392.273 244.97 395.2 244.97C398.127 244.97 400.5 242.707 400.5 239.915C400.5 237.122 398.127 234.859 395.2 234.859C392.273 234.859 389.9 237.122 389.9 239.915Z" fill="#B7B7B7" fill-opacity="0.43"/>
<path d="M389.9 273.493C389.9 276.285 392.273 278.549 395.2 278.549C398.127 278.549 400.5 276.285 400.5 273.493C400.5 270.701 398.127 268.437 395.2 268.437C392.273 268.437 389.9 270.701 389.9 273.493Z" fill="#B7B7B7" fill-opacity="0.43"/>
<path d="M389.9 307.071C389.9 309.864 392.273 312.127 395.2 312.127C398.127 312.127 400.5 309.864 400.5 307.071C400.5 304.279 398.127 302.016 395.2 302.016C392.273 302.016 389.9 304.279 389.9 307.071Z" fill="#B7B7B7" fill-opacity="0.43"/>
<path d="M389.9 340.555C389.9 343.347 392.273 345.61 395.2 345.61C398.127 345.61 400.5 343.347 400.5 340.555C400.5 337.762 398.127 335.499 395.2 335.499C392.273 335.499 389.9 337.762 389.9 340.555Z" fill="#B7B7B7" fill-opacity="0.43"/>
<path d="M389.9 374.133C389.9 376.926 392.273 379.189 395.2 379.189C398.127 379.189 400.5 376.926 400.5 374.133C400.5 371.341 398.127 369.077 395.2 369.077C392.273 369.077 389.9 371.341 389.9 374.133Z" fill="#B7B7B7" fill-opacity="0.43"/>
<path d="M389.9 407.712C389.9 410.504 392.273 412.767 395.2 412.767C398.127 412.767 400.5 410.504 400.5 407.712C400.5 404.919 398.127 402.656 395.2 402.656C392.273 402.656 389.9 404.919 389.9 407.712Z" fill="#B7B7B7" fill-opacity="0.43"/>
<path d="M356.2 5.05585C356.2 7.84812 358.573 10.1117 361.5 10.1117C364.427 10.1117 366.8 7.84812 366.8 5.05585C366.8 2.26358 364.427 -9.89445e-08 361.5 -2.20999e-07C358.573 -3.43053e-07 356.2 2.26358 356.2 5.05585Z" fill="#B7B7B7" fill-opacity="0.43"/>
<path d="M356.2 38.6345C356.2 41.4267 358.573 43.6903 361.5 43.6903C364.427 43.6903 366.8 41.4267 366.8 38.6345C366.8 35.8422 364.427 33.5786 361.5 33.5786C358.573 33.5786 356.2 35.8422 356.2 38.6345Z" fill="#B7B7B7" fill-opacity="0.43"/>
<path d="M356.2 72.2128C356.2 75.0051 358.573 77.2687 361.5 77.2687C364.427 77.2687 366.8 75.0051 366.8 72.2128C366.8 69.4206 364.427 67.157 361.5 67.157C358.573 67.157 356.2 69.4206 356.2 72.2128Z" fill="#B7B7B7" fill-opacity="0.43"/>
<path d="M356.2 105.791C356.2 108.584 358.573 110.847 361.5 110.847C364.427 110.847 366.8 108.584 366.8 105.791C366.8 102.999 364.427 100.736 361.5 100.736C358.573 100.736 356.2 102.999 356.2 105.791Z" fill="#B7B7B7" fill-opacity="0.43"/>
<path d="M356.2 139.274C356.2 142.067 358.573 144.33 361.5 144.33C364.427 144.33 366.8 142.067 366.8 139.274C366.8 136.482 364.427 134.219 361.5 134.219C358.573 134.219 356.2 136.482 356.2 139.274Z" fill="#B7B7B7" fill-opacity="0.43"/>
<path d="M356.2 172.853C356.2 175.645 358.573 177.909 361.5 177.909C364.427 177.909 366.8 175.645 366.8 172.853C366.8 170.061 364.427 167.797 361.5 167.797C358.573 167.797 356.2 170.061 356.2 172.853Z" fill="#B7B7B7" fill-opacity="0.43"/>
<path d="M356.2 206.431C356.2 209.224 358.573 211.487 361.5 211.487C364.427 211.487 366.8 209.224 366.8 206.431C366.8 203.639 364.427 201.375 361.5 201.375C358.573 201.375 356.2 203.639 356.2 206.431Z" fill="#B7B7B7" fill-opacity="0.43"/>
<path d="M356.2 239.915C356.2 242.707 358.573 244.97 361.5 244.97C364.427 244.97 366.8 242.707 366.8 239.915C366.8 237.122 364.427 234.859 361.5 234.859C358.573 234.859 356.2 237.122 356.2 239.915Z" fill="#B7B7B7" fill-opacity="0.43"/>
<path d="M356.2 273.493C356.2 276.285 358.573 278.549 361.5 278.549C364.427 278.549 366.8 276.285 366.8 273.493C366.8 270.701 364.427 268.437 361.5 268.437C358.573 268.437 356.2 270.701 356.2 273.493Z" fill="#B7B7B7" fill-opacity="0.43"/>
<path d="M356.2 307.071C356.2 309.864 358.573 312.127 361.5 312.127C364.427 312.127 366.8 309.864 366.8 307.071C366.8 304.279 364.427 302.016 361.5 302.016C358.573 302.016 356.2 304.279 356.2 307.071Z" fill="#B7B7B7" fill-opacity="0.43"/>
<path d="M356.2 340.555C356.2 343.347 358.573 345.61 361.5 345.61C364.427 345.61 366.8 343.347 366.8 340.555C366.8 337.762 364.427 335.499 361.5 335.499C358.573 335.499 356.2 337.762 356.2 340.555Z" fill="#B7B7B7" fill-opacity="0.43"/>
<path d="M356.2 374.133C356.2 376.926 358.573 379.189 361.5 379.189C364.427 379.189 366.8 376.926 366.8 374.133C366.8 371.341 364.427 369.077 361.5 369.077C358.573 369.077 356.2 371.341 356.2 374.133Z" fill="#B7B7B7" fill-opacity="0.43"/>
<path d="M356.2 407.712C356.2 410.504 358.573 412.767 361.5 412.767C364.427 412.767 366.8 410.504 366.8 407.712C366.8 404.919 364.427 402.656 361.5 402.656C358.573 402.656 356.2 404.919 356.2 407.712Z" fill="#B7B7B7" fill-opacity="0.43"/>
<path d="M322.4 5.05585C322.4 7.84812 324.773 10.1117 327.7 10.1117C330.627 10.1117 333 7.84812 333 5.05585C333 2.26358 330.627 -9.89442e-08 327.7 -2.20998e-07C324.773 -3.43052e-07 322.4 2.26358 322.4 5.05585Z" fill="#B7B7B7" fill-opacity="0.43"/>
<path d="M322.4 38.6345C322.4 41.4267 324.773 43.6903 327.7 43.6903C330.627 43.6903 333 41.4267 333 38.6345C333 35.8422 330.627 33.5786 327.7 33.5786C324.773 33.5786 322.4 35.8422 322.4 38.6345Z" fill="#B7B7B7" fill-opacity="0.43"/>
<path d="M322.4 72.2128C322.4 75.0051 324.773 77.2687 327.7 77.2687C330.627 77.2687 333 75.0051 333 72.2128C333 69.4206 330.627 67.157 327.7 67.157C324.773 67.157 322.4 69.4206 322.4 72.2128Z" fill="#B7B7B7" fill-opacity="0.43"/>
<path d="M322.4 105.791C322.4 108.584 324.773 110.847 327.7 110.847C330.627 110.847 333 108.584 333 105.791C333 102.999 330.627 100.736 327.7 100.736C324.773 100.736 322.4 102.999 322.4 105.791Z" fill="#B7B7B7" fill-opacity="0.43"/>
<path d="M322.4 139.274C322.4 142.067 324.773 144.33 327.7 144.33C330.627 144.33 333 142.067 333 139.274C333 136.482 330.627 134.219 327.7 134.219C324.773 134.219 322.4 136.482 322.4 139.274Z" fill="#B7B7B7" fill-opacity="0.43"/>
<path d="M322.4 172.853C322.4 175.645 324.773 177.909 327.7 177.909C330.627 177.909 333 175.645 333 172.853C333 170.061 330.627 167.797 327.7 167.797C324.773 167.797 322.4 170.061 322.4 172.853Z" fill="#B7B7B7" fill-opacity="0.43"/>
<path d="M322.4 206.431C322.4 209.224 324.773 211.487 327.7 211.487C330.627 211.487 333 209.224 333 206.431C333 203.639 330.627 201.375 327.7 201.375C324.773 201.375 322.4 203.639 322.4 206.431Z" fill="#B7B7B7" fill-opacity="0.43"/>
<path d="M322.4 239.915C322.4 242.707 324.773 244.97 327.7 244.97C330.627 244.97 333 242.707 333 239.915C333 237.122 330.627 234.859 327.7 234.859C324.773 234.859 322.4 237.122 322.4 239.915Z" fill="#B7B7B7" fill-opacity="0.43"/>
<path d="M322.4 273.493C322.4 276.285 324.773 278.549 327.7 278.549C330.627 278.549 333 276.285 333 273.493C333 270.701 330.627 268.437 327.7 268.437C324.773 268.437 322.4 270.701 322.4 273.493Z" fill="#B7B7B7" fill-opacity="0.43"/>
<path d="M322.4 307.071C322.4 309.864 324.773 312.127 327.7 312.127C330.627 312.127 333 309.864 333 307.071C333 304.279 330.627 302.016 327.7 302.016C324.773 302.016 322.4 304.279 322.4 307.071Z" fill="#B7B7B7" fill-opacity="0.43"/>
<path d="M322.4 340.555C322.4 343.347 324.773 345.61 327.7 345.61C330.627 345.61 333 343.347 333 340.555C333 337.762 330.627 335.499 327.7 335.499C324.773 335.499 322.4 337.762 322.4 340.555Z" fill="#B7B7B7" fill-opacity="0.43"/>
<path d="M322.4 374.133C322.4 376.926 324.773 379.189 327.7 379.189C330.627 379.189 333 376.926 333 374.133C333 371.341 330.627 369.077 327.7 369.077C324.773 369.077 322.4 371.341 322.4 374.133Z" fill="#B7B7B7" fill-opacity="0.43"/>
<path d="M322.4 407.712C322.4 410.504 324.773 412.767 327.7 412.767C330.627 412.767 333 410.504 333 407.712C333 404.919 330.627 402.656 327.7 402.656C324.773 402.656 322.4 404.919 322.4 407.712Z" fill="#B7B7B7" fill-opacity="0.43"/>
<path d="M288.7 5.05585C288.7 7.84812 291.073 10.1117 294 10.1117C296.927 10.1117 299.3 7.84812 299.3 5.05585C299.3 2.26358 296.927 -9.89445e-08 294 -2.20999e-07C291.073 -3.43053e-07 288.7 2.26358 288.7 5.05585Z" fill="#B7B7B7" fill-opacity="0.43"/>
<path d="M288.7 38.6345C288.7 41.4267 291.073 43.6903 294 43.6903C296.927 43.6903 299.3 41.4267 299.3 38.6345C299.3 35.8422 296.927 33.5786 294 33.5786C291.073 33.5786 288.7 35.8422 288.7 38.6345Z" fill="#B7B7B7" fill-opacity="0.43"/>
<path d="M288.7 72.2128C288.7 75.0051 291.073 77.2687 294 77.2687C296.927 77.2687 299.3 75.0051 299.3 72.2128C299.3 69.4206 296.927 67.157 294 67.157C291.073 67.157 288.7 69.4206 288.7 72.2128Z" fill="#B7B7B7" fill-opacity="0.43"/>
<path d="M288.7 105.791C288.7 108.584 291.073 110.847 294 110.847C296.927 110.847 299.3 108.584 299.3 105.791C299.3 102.999 296.927 100.736 294 100.736C291.073 100.736 288.7 102.999 288.7 105.791Z" fill="#B7B7B7" fill-opacity="0.43"/>
<path d="M288.7 139.274C288.7 142.067 291.073 144.33 294 144.33C296.927 144.33 299.3 142.067 299.3 139.274C299.3 136.482 296.927 134.219 294 134.219C291.073 134.219 288.7 136.482 288.7 139.274Z" fill="#B7B7B7" fill-opacity="0.43"/>
<path d="M288.7 172.853C288.7 175.645 291.073 177.909 294 177.909C296.927 177.909 299.3 175.645 299.3 172.853C299.3 170.061 296.927 167.797 294 167.797C291.073 167.797 288.7 170.061 288.7 172.853Z" fill="#B7B7B7" fill-opacity="0.43"/>
<path d="M288.7 206.431C288.7 209.224 291.073 211.487 294 211.487C296.927 211.487 299.3 209.224 299.3 206.431C299.3 203.639 296.927 201.375 294 201.375C291.073 201.375 288.7 203.639 288.7 206.431Z" fill="#B7B7B7" fill-opacity="0.43"/>
<path d="M288.7 239.914C288.7 242.707 291.073 244.97 294 244.97C296.927 244.97 299.3 242.707 299.3 239.914C299.3 237.122 296.927 234.859 294 234.859C291.073 234.859 288.7 237.122 288.7 239.914Z" fill="#B7B7B7" fill-opacity="0.43"/>
<path d="M288.7 273.493C288.7 276.285 291.073 278.549 294 278.549C296.927 278.549 299.3 276.285 299.3 273.493C299.3 270.701 296.927 268.437 294 268.437C291.073 268.437 288.7 270.701 288.7 273.493Z" fill="#B7B7B7" fill-opacity="0.43"/>
<path d="M288.7 307.071C288.7 309.864 291.073 312.127 294 312.127C296.927 312.127 299.3 309.864 299.3 307.071C299.3 304.279 296.927 302.016 294 302.016C291.073 302.016 288.7 304.279 288.7 307.071Z" fill="#B7B7B7" fill-opacity="0.43"/>
<path d="M288.7 340.555C288.7 343.347 291.073 345.61 294 345.61C296.927 345.61 299.3 343.347 299.3 340.555C299.3 337.762 296.927 335.499 294 335.499C291.073 335.499 288.7 337.762 288.7 340.555Z" fill="#B7B7B7" fill-opacity="0.43"/>
<path d="M288.7 374.133C288.7 376.926 291.073 379.189 294 379.189C296.927 379.189 299.3 376.926 299.3 374.133C299.3 371.341 296.927 369.077 294 369.077C291.073 369.077 288.7 371.341 288.7 374.133Z" fill="#B7B7B7" fill-opacity="0.43"/>
<path d="M288.7 407.712C288.7 410.504 291.073 412.767 294 412.767C296.927 412.767 299.3 410.504 299.3 407.712C299.3 404.919 296.927 402.656 294 402.656C291.073 402.656 288.7 404.919 288.7 407.712Z" fill="#B7B7B7" fill-opacity="0.43"/>
<path d="M254.9 5.05585C254.9 7.84812 257.273 10.1117 260.2 10.1117C263.127 10.1117 265.5 7.84812 265.5 5.05585C265.5 2.26358 263.127 -9.89445e-08 260.2 -2.20999e-07C257.273 -3.43053e-07 254.9 2.26358 254.9 5.05585Z" fill="#B7B7B7" fill-opacity="0.43"/>
<path d="M254.9 38.6345C254.9 41.4267 257.273 43.6903 260.2 43.6903C263.127 43.6903 265.5 41.4267 265.5 38.6345C265.5 35.8422 263.127 33.5786 260.2 33.5786C257.273 33.5786 254.9 35.8422 254.9 38.6345Z" fill="#B7B7B7" fill-opacity="0.43"/>
<path d="M254.9 72.2128C254.9 75.0051 257.273 77.2687 260.2 77.2687C263.127 77.2687 265.5 75.0051 265.5 72.2128C265.5 69.4206 263.127 67.157 260.2 67.157C257.273 67.157 254.9 69.4206 254.9 72.2128Z" fill="#B7B7B7" fill-opacity="0.43"/>
<path d="M254.9 105.791C254.9 108.584 257.273 110.847 260.2 110.847C263.127 110.847 265.5 108.584 265.5 105.791C265.5 102.999 263.127 100.736 260.2 100.736C257.273 100.736 254.9 102.999 254.9 105.791Z" fill="#B7B7B7" fill-opacity="0.43"/>
<path d="M254.9 139.274C254.9 142.067 257.273 144.33 260.2 144.33C263.127 144.33 265.5 142.067 265.5 139.274C265.5 136.482 263.127 134.219 260.2 134.219C257.273 134.219 254.9 136.482 254.9 139.274Z" fill="#B7B7B7" fill-opacity="0.43"/>
<path d="M254.9 172.853C254.9 175.645 257.273 177.909 260.2 177.909C263.127 177.909 265.5 175.645 265.5 172.853C265.5 170.061 263.127 167.797 260.2 167.797C257.273 167.797 254.9 170.061 254.9 172.853Z" fill="#B7B7B7" fill-opacity="0.43"/>
<path d="M254.9 206.431C254.9 209.224 257.273 211.487 260.2 211.487C263.127 211.487 265.5 209.224 265.5 206.431C265.5 203.639 263.127 201.375 260.2 201.375C257.273 201.375 254.9 203.639 254.9 206.431Z" fill="#B7B7B7" fill-opacity="0.43"/>
<path d="M254.9 239.914C254.9 242.707 257.273 244.97 260.2 244.97C263.127 244.97 265.5 242.707 265.5 239.914C265.5 237.122 263.127 234.859 260.2 234.859C257.273 234.859 254.9 237.122 254.9 239.914Z" fill="#B7B7B7" fill-opacity="0.43"/>
<path d="M254.9 273.493C254.9 276.285 257.273 278.549 260.2 278.549C263.127 278.549 265.5 276.285 265.5 273.493C265.5 270.701 263.127 268.437 260.2 268.437C257.273 268.437 254.9 270.701 254.9 273.493Z" fill="#B7B7B7" fill-opacity="0.43"/>
<path d="M254.9 307.071C254.9 309.864 257.273 312.127 260.2 312.127C263.127 312.127 265.5 309.864 265.5 307.071C265.5 304.279 263.127 302.016 260.2 302.016C257.273 302.016 254.9 304.279 254.9 307.071Z" fill="#B7B7B7" fill-opacity="0.43"/>
<path d="M254.9 340.555C254.9 343.347 257.273 345.61 260.2 345.61C263.127 345.61 265.5 343.347 265.5 340.555C265.5 337.762 263.127 335.499 260.2 335.499C257.273 335.499 254.9 337.762 254.9 340.555Z" fill="#B7B7B7" fill-opacity="0.43"/>
<path d="M254.9 374.133C254.9 376.926 257.273 379.189 260.2 379.189C263.127 379.189 265.5 376.926 265.5 374.133C265.5 371.341 263.127 369.077 260.2 369.077C257.273 369.077 254.9 371.341 254.9 374.133Z" fill="#B7B7B7" fill-opacity="0.43"/>
<path d="M254.9 407.712C254.9 410.504 257.273 412.767 260.2 412.767C263.127 412.767 265.5 410.504 265.5 407.712C265.5 404.919 263.127 402.656 260.2 402.656C257.273 402.656 254.9 404.919 254.9 407.712Z" fill="#B7B7B7" fill-opacity="0.43"/>
<path d="M221.2 5.05585C221.2 7.84812 223.573 10.1117 226.5 10.1117C229.427 10.1117 231.8 7.84812 231.8 5.05585C231.8 2.26358 229.427 -9.89445e-08 226.5 -2.20999e-07C223.573 -3.43053e-07 221.2 2.26358 221.2 5.05585Z" fill="#B7B7B7" fill-opacity="0.43"/>
<path d="M221.2 38.6345C221.2 41.4267 223.573 43.6903 226.5 43.6903C229.427 43.6903 231.8 41.4267 231.8 38.6345C231.8 35.8422 229.427 33.5786 226.5 33.5786C223.573 33.5786 221.2 35.8422 221.2 38.6345Z" fill="#B7B7B7" fill-opacity="0.43"/>
<path d="M221.2 72.2128C221.2 75.0051 223.573 77.2687 226.5 77.2687C229.427 77.2687 231.8 75.0051 231.8 72.2128C231.8 69.4206 229.427 67.157 226.5 67.157C223.573 67.157 221.2 69.4206 221.2 72.2128Z" fill="#B7B7B7" fill-opacity="0.43"/>
<path d="M221.2 105.791C221.2 108.584 223.573 110.847 226.5 110.847C229.427 110.847 231.8 108.584 231.8 105.791C231.8 102.999 229.427 100.736 226.5 100.736C223.573 100.736 221.2 102.999 221.2 105.791Z" fill="#B7B7B7" fill-opacity="0.43"/>
<path d="M221.2 139.274C221.2 142.067 223.573 144.33 226.5 144.33C229.427 144.33 231.8 142.067 231.8 139.274C231.8 136.482 229.427 134.219 226.5 134.219C223.573 134.219 221.2 136.482 221.2 139.274Z" fill="#B7B7B7" fill-opacity="0.43"/>
<path d="M221.2 172.853C221.2 175.645 223.573 177.909 226.5 177.909C229.427 177.909 231.8 175.645 231.8 172.853C231.8 170.061 229.427 167.797 226.5 167.797C223.573 167.797 221.2 170.061 221.2 172.853Z" fill="#B7B7B7" fill-opacity="0.43"/>
<path d="M221.2 206.431C221.2 209.224 223.573 211.487 226.5 211.487C229.427 211.487 231.8 209.224 231.8 206.431C231.8 203.639 229.427 201.375 226.5 201.375C223.573 201.375 221.2 203.639 221.2 206.431Z" fill="#B7B7B7" fill-opacity="0.43"/>
<path d="M221.2 239.914C221.2 242.707 223.573 244.97 226.5 244.97C229.427 244.97 231.8 242.707 231.8 239.914C231.8 237.122 229.427 234.859 226.5 234.859C223.573 234.859 221.2 237.122 221.2 239.914Z" fill="#B7B7B7" fill-opacity="0.43"/>
<path d="M221.2 273.493C221.2 276.285 223.573 278.549 226.5 278.549C229.427 278.549 231.8 276.285 231.8 273.493C231.8 270.701 229.427 268.437 226.5 268.437C223.573 268.437 221.2 270.701 221.2 273.493Z" fill="#B7B7B7" fill-opacity="0.43"/>
<path d="M221.2 307.071C221.2 309.864 223.573 312.127 226.5 312.127C229.427 312.127 231.8 309.864 231.8 307.071C231.8 304.279 229.427 302.016 226.5 302.016C223.573 302.016 221.2 304.279 221.2 307.071Z" fill="#B7B7B7" fill-opacity="0.43"/>
<path d="M221.2 340.555C221.2 343.347 223.573 345.61 226.5 345.61C229.427 345.61 231.8 343.347 231.8 340.555C231.8 337.762 229.427 335.499 226.5 335.499C223.573 335.499 221.2 337.762 221.2 340.555Z" fill="#B7B7B7" fill-opacity="0.43"/>
<path d="M221.2 374.133C221.2 376.926 223.573 379.189 226.5 379.189C229.427 379.189 231.8 376.926 231.8 374.133C231.8 371.341 229.427 369.077 226.5 369.077C223.573 369.077 221.2 371.341 221.2 374.133Z" fill="#B7B7B7" fill-opacity="0.43"/>
<path d="M221.2 407.712C221.2 410.504 223.573 412.767 226.5 412.767C229.427 412.767 231.8 410.504 231.8 407.712C231.8 404.919 229.427 402.656 226.5 402.656C223.573 402.656 221.2 404.919 221.2 407.712Z" fill="#B7B7B7" fill-opacity="0.43"/>
<path d="M187.5 5.05585C187.5 7.84812 189.872 10.1117 192.8 10.1117C195.727 10.1117 198.1 7.84812 198.1 5.05585C198.1 2.26358 195.727 -9.89445e-08 192.8 -2.20999e-07C189.872 -3.43053e-07 187.5 2.26358 187.5 5.05585Z" fill="#B7B7B7" fill-opacity="0.43"/>
<path d="M187.5 38.6345C187.5 41.4267 189.872 43.6903 192.8 43.6903C195.727 43.6903 198.1 41.4267 198.1 38.6345C198.1 35.8422 195.727 33.5786 192.8 33.5786C189.872 33.5786 187.5 35.8422 187.5 38.6345Z" fill="#B7B7B7" fill-opacity="0.43"/>
<path d="M187.5 72.2128C187.5 75.0051 189.872 77.2687 192.8 77.2687C195.727 77.2687 198.1 75.0051 198.1 72.2128C198.1 69.4206 195.727 67.157 192.8 67.157C189.872 67.157 187.5 69.4206 187.5 72.2128Z" fill="#B7B7B7" fill-opacity="0.43"/>
<path d="M187.5 105.791C187.5 108.584 189.872 110.847 192.8 110.847C195.727 110.847 198.1 108.584 198.1 105.791C198.1 102.999 195.727 100.736 192.8 100.736C189.872 100.736 187.5 102.999 187.5 105.791Z" fill="#B7B7B7" fill-opacity="0.43"/>
<path d="M187.5 139.274C187.5 142.067 189.872 144.33 192.8 144.33C195.727 144.33 198.1 142.067 198.1 139.274C198.1 136.482 195.727 134.219 192.8 134.219C189.872 134.219 187.5 136.482 187.5 139.274Z" fill="#B7B7B7" fill-opacity="0.43"/>
<path d="M187.5 172.853C187.5 175.645 189.872 177.909 192.8 177.909C195.727 177.909 198.1 175.645 198.1 172.853C198.1 170.061 195.727 167.797 192.8 167.797C189.872 167.797 187.5 170.061 187.5 172.853Z" fill="#B7B7B7" fill-opacity="0.43"/>
<path d="M187.5 206.431C187.5 209.224 189.872 211.487 192.8 211.487C195.727 211.487 198.1 209.224 198.1 206.431C198.1 203.639 195.727 201.375 192.8 201.375C189.872 201.375 187.5 203.639 187.5 206.431Z" fill="#B7B7B7" fill-opacity="0.43"/>
<path d="M187.5 239.914C187.5 242.707 189.872 244.97 192.8 244.97C195.727 244.97 198.1 242.707 198.1 239.914C198.1 237.122 195.727 234.859 192.8 234.859C189.872 234.859 187.5 237.122 187.5 239.914Z" fill="#B7B7B7" fill-opacity="0.43"/>
<path d="M187.5 273.493C187.5 276.285 189.872 278.549 192.8 278.549C195.727 278.549 198.1 276.285 198.1 273.493C198.1 270.701 195.727 268.437 192.8 268.437C189.872 268.437 187.5 270.701 187.5 273.493Z" fill="#B7B7B7" fill-opacity="0.43"/>
<path d="M187.5 307.071C187.5 309.864 189.872 312.127 192.8 312.127C195.727 312.127 198.1 309.864 198.1 307.071C198.1 304.279 195.727 302.016 192.8 302.016C189.872 302.016 187.5 304.279 187.5 307.071Z" fill="#B7B7B7" fill-opacity="0.43"/>
<path d="M187.5 340.555C187.5 343.347 189.872 345.61 192.8 345.61C195.727 345.61 198.1 343.347 198.1 340.555C198.1 337.762 195.727 335.499 192.8 335.499C189.872 335.499 187.5 337.762 187.5 340.555Z" fill="#B7B7B7" fill-opacity="0.43"/>
<path d="M187.5 374.133C187.5 376.926 189.872 379.189 192.8 379.189C195.727 379.189 198.1 376.926 198.1 374.133C198.1 371.341 195.727 369.077 192.8 369.077C189.872 369.077 187.5 371.341 187.5 374.133Z" fill="#B7B7B7" fill-opacity="0.43"/>
<path d="M187.5 407.712C187.5 410.504 189.872 412.767 192.8 412.767C195.727 412.767 198.1 410.504 198.1 407.712C198.1 404.919 195.727 402.656 192.8 402.656C189.872 402.656 187.5 404.919 187.5 407.712Z" fill="#B7B7B7" fill-opacity="0.43"/>
<path d="M153.7 5.05585C153.7 7.84813 156.073 10.1117 159 10.1117C161.927 10.1117 164.3 7.84813 164.3 5.05585C164.3 2.26358 161.927 -9.89438e-08 159 -2.20998e-07C156.073 -3.43052e-07 153.7 2.26358 153.7 5.05585Z" fill="#B7B7B7" fill-opacity="0.43"/>
<path d="M153.7 38.6345C153.7 41.4267 156.073 43.6903 159 43.6903C161.927 43.6903 164.3 41.4267 164.3 38.6345C164.3 35.8422 161.927 33.5786 159 33.5786C156.073 33.5786 153.7 35.8422 153.7 38.6345Z" fill="#B7B7B7" fill-opacity="0.43"/>
<path d="M153.7 72.2128C153.7 75.0051 156.073 77.2687 159 77.2687C161.927 77.2687 164.3 75.0051 164.3 72.2128C164.3 69.4206 161.927 67.157 159 67.157C156.073 67.157 153.7 69.4206 153.7 72.2128Z" fill="#B7B7B7" fill-opacity="0.43"/>
<path d="M153.7 105.791C153.7 108.584 156.073 110.847 159 110.847C161.927 110.847 164.3 108.584 164.3 105.791C164.3 102.999 161.927 100.736 159 100.736C156.073 100.736 153.7 102.999 153.7 105.791Z" fill="#B7B7B7" fill-opacity="0.43"/>
<path d="M153.7 139.274C153.7 142.067 156.073 144.33 159 144.33C161.927 144.33 164.3 142.067 164.3 139.274C164.3 136.482 161.927 134.219 159 134.219C156.073 134.219 153.7 136.482 153.7 139.274Z" fill="#B7B7B7" fill-opacity="0.43"/>
<path d="M153.7 172.853C153.7 175.645 156.073 177.909 159 177.909C161.927 177.909 164.3 175.645 164.3 172.853C164.3 170.061 161.927 167.797 159 167.797C156.073 167.797 153.7 170.061 153.7 172.853Z" fill="#B7B7B7" fill-opacity="0.43"/>
<path d="M153.7 206.431C153.7 209.224 156.073 211.487 159 211.487C161.927 211.487 164.3 209.224 164.3 206.431C164.3 203.639 161.927 201.375 159 201.375C156.073 201.375 153.7 203.639 153.7 206.431Z" fill="#B7B7B7" fill-opacity="0.43"/>
<path d="M153.7 239.914C153.7 242.707 156.073 244.97 159 244.97C161.927 244.97 164.3 242.707 164.3 239.914C164.3 237.122 161.927 234.859 159 234.859C156.073 234.859 153.7 237.122 153.7 239.914Z" fill="#B7B7B7" fill-opacity="0.43"/>
<path d="M153.7 273.493C153.7 276.285 156.073 278.549 159 278.549C161.927 278.549 164.3 276.285 164.3 273.493C164.3 270.701 161.927 268.437 159 268.437C156.073 268.437 153.7 270.701 153.7 273.493Z" fill="#B7B7B7" fill-opacity="0.43"/>
<path d="M153.7 307.071C153.7 309.864 156.073 312.127 159 312.127C161.927 312.127 164.3 309.864 164.3 307.071C164.3 304.279 161.927 302.016 159 302.016C156.073 302.016 153.7 304.279 153.7 307.071Z" fill="#B7B7B7" fill-opacity="0.43"/>
<path d="M153.7 340.555C153.7 343.347 156.073 345.61 159 345.61C161.927 345.61 164.3 343.347 164.3 340.555C164.3 337.762 161.927 335.499 159 335.499C156.073 335.499 153.7 337.762 153.7 340.555Z" fill="#B7B7B7" fill-opacity="0.43"/>
<path d="M153.7 374.133C153.7 376.926 156.073 379.189 159 379.189C161.927 379.189 164.3 376.926 164.3 374.133C164.3 371.341 161.927 369.077 159 369.077C156.073 369.077 153.7 371.341 153.7 374.133Z" fill="#B7B7B7" fill-opacity="0.43"/>
<path d="M153.7 407.712C153.7 410.504 156.073 412.767 159 412.767C161.927 412.767 164.3 410.504 164.3 407.712C164.3 404.919 161.927 402.656 159 402.656C156.073 402.656 153.7 404.919 153.7 407.712Z" fill="#B7B7B7" fill-opacity="0.43"/>
<path d="M120 5.05585C120 7.84813 122.373 10.1117 125.3 10.1117C128.227 10.1117 130.6 7.84813 130.6 5.05585C130.6 2.26358 128.227 -9.89438e-08 125.3 -2.20998e-07C122.373 -3.43052e-07 120 2.26358 120 5.05585Z" fill="#B7B7B7" fill-opacity="0.43"/>
<path d="M120 38.6342C120 41.4265 122.373 43.6901 125.3 43.6901C128.227 43.6901 130.6 41.4265 130.6 38.6342C130.6 35.842 128.227 33.5784 125.3 33.5784C122.373 33.5784 120 35.842 120 38.6342Z" fill="#B7B7B7" fill-opacity="0.43"/>
<path d="M120 72.2128C120 75.0051 122.373 77.2687 125.3 77.2687C128.227 77.2687 130.6 75.0051 130.6 72.2128C130.6 69.4206 128.227 67.157 125.3 67.157C122.373 67.157 120 69.4206 120 72.2128Z" fill="#B7B7B7" fill-opacity="0.43"/>
<path d="M120 105.791C120 108.584 122.373 110.847 125.3 110.847C128.227 110.847 130.6 108.584 130.6 105.791C130.6 102.999 128.227 100.736 125.3 100.736C122.373 100.736 120 102.999 120 105.791Z" fill="#B7B7B7" fill-opacity="0.43"/>
<path d="M120 139.274C120 142.067 122.373 144.33 125.3 144.33C128.227 144.33 130.6 142.067 130.6 139.274C130.6 136.482 128.227 134.219 125.3 134.219C122.373 134.219 120 136.482 120 139.274Z" fill="#B7B7B7" fill-opacity="0.43"/>
<path d="M120 172.853C120 175.645 122.373 177.909 125.3 177.909C128.227 177.909 130.6 175.645 130.6 172.853C130.6 170.061 128.227 167.797 125.3 167.797C122.373 167.797 120 170.061 120 172.853Z" fill="#B7B7B7" fill-opacity="0.43"/>
<path d="M120 206.431C120 209.224 122.373 211.487 125.3 211.487C128.227 211.487 130.6 209.224 130.6 206.431C130.6 203.639 128.227 201.375 125.3 201.375C122.373 201.375 120 203.639 120 206.431Z" fill="#B7B7B7" fill-opacity="0.43"/>
<path d="M120 239.914C120 242.707 122.373 244.97 125.3 244.97C128.227 244.97 130.6 242.707 130.6 239.914C130.6 237.122 128.227 234.859 125.3 234.859C122.373 234.859 120 237.122 120 239.914Z" fill="#B7B7B7" fill-opacity="0.43"/>
<path d="M120 273.493C120 276.285 122.373 278.549 125.3 278.549C128.227 278.549 130.6 276.285 130.6 273.493C130.6 270.701 128.227 268.437 125.3 268.437C122.373 268.437 120 270.701 120 273.493Z" fill="#B7B7B7" fill-opacity="0.43"/>
<path d="M120 307.071C120 309.864 122.373 312.127 125.3 312.127C128.227 312.127 130.6 309.864 130.6 307.071C130.6 304.279 128.227 302.016 125.3 302.016C122.373 302.016 120 304.279 120 307.071Z" fill="#B7B7B7" fill-opacity="0.43"/>
<path d="M120 340.555C120 343.347 122.373 345.61 125.3 345.61C128.227 345.61 130.6 343.347 130.6 340.555C130.6 337.762 128.227 335.499 125.3 335.499C122.373 335.499 120 337.762 120 340.555Z" fill="#B7B7B7" fill-opacity="0.43"/>
<path d="M120 374.133C120 376.926 122.373 379.189 125.3 379.189C128.227 379.189 130.6 376.926 130.6 374.133C130.6 371.341 128.227 369.077 125.3 369.077C122.373 369.077 120 371.341 120 374.133Z" fill="#B7B7B7" fill-opacity="0.43"/>
<path d="M120 407.712C120 410.504 122.373 412.767 125.3 412.767C128.227 412.767 130.6 410.504 130.6 407.712C130.6 404.919 128.227 402.656 125.3 402.656C122.373 402.656 120 404.919 120 407.712Z" fill="#B7B7B7" fill-opacity="0.43"/>
<path d="M86.1998 5.05585C86.1998 7.84812 88.5727 10.1117 91.4998 10.1117C94.4269 10.1117 96.7998 7.84812 96.7998 5.05585C96.7998 2.26358 94.4269 -9.89438e-08 91.4998 -2.20998e-07C88.5727 -3.43052e-07 86.1998 2.26358 86.1998 5.05585Z" fill="#B7B7B7" fill-opacity="0.43"/>
<path d="M86.1998 38.6342C86.1998 41.4265 88.5727 43.6901 91.4998 43.6901C94.4269 43.6901 96.7998 41.4265 96.7998 38.6342C96.7998 35.842 94.4269 33.5784 91.4998 33.5784C88.5727 33.5784 86.1998 35.842 86.1998 38.6342Z" fill="#B7B7B7" fill-opacity="0.43"/>
<path d="M86.1998 72.2128C86.1998 75.0051 88.5727 77.2687 91.4998 77.2687C94.4269 77.2687 96.7998 75.0051 96.7998 72.2128C96.7998 69.4206 94.4269 67.157 91.4998 67.157C88.5727 67.157 86.1998 69.4206 86.1998 72.2128Z" fill="#B7B7B7" fill-opacity="0.43"/>
<path d="M86.1998 105.791C86.1998 108.584 88.5727 110.847 91.4998 110.847C94.4269 110.847 96.7998 108.584 96.7998 105.791C96.7998 102.999 94.4269 100.736 91.4998 100.736C88.5727 100.736 86.1998 102.999 86.1998 105.791Z" fill="#B7B7B7" fill-opacity="0.43"/>
<path d="M86.1998 139.274C86.1998 142.067 88.5727 144.33 91.4998 144.33C94.4269 144.33 96.7998 142.067 96.7998 139.274C96.7998 136.482 94.4269 134.219 91.4998 134.219C88.5727 134.219 86.1998 136.482 86.1998 139.274Z" fill="#B7B7B7" fill-opacity="0.43"/>
<path d="M86.1998 172.853C86.1998 175.645 88.5727 177.909 91.4998 177.909C94.4269 177.909 96.7998 175.645 96.7998 172.853C96.7998 170.061 94.4269 167.797 91.4998 167.797C88.5727 167.797 86.1998 170.061 86.1998 172.853Z" fill="#B7B7B7" fill-opacity="0.43"/>
<path d="M86.1998 206.431C86.1998 209.224 88.5727 211.487 91.4998 211.487C94.4269 211.487 96.7998 209.224 96.7998 206.431C96.7998 203.639 94.4269 201.375 91.4998 201.375C88.5727 201.375 86.1998 203.639 86.1998 206.431Z" fill="#B7B7B7" fill-opacity="0.43"/>
<path d="M86.1998 239.914C86.1998 242.707 88.5727 244.97 91.4998 244.97C94.4269 244.97 96.7998 242.707 96.7998 239.914C96.7998 237.122 94.4269 234.859 91.4998 234.859C88.5727 234.859 86.1998 237.122 86.1998 239.914Z" fill="#B7B7B7" fill-opacity="0.43"/>
<path d="M86.1998 273.493C86.1998 276.285 88.5727 278.549 91.4998 278.549C94.4269 278.549 96.7998 276.285 96.7998 273.493C96.7998 270.701 94.4269 268.437 91.4998 268.437C88.5727 268.437 86.1998 270.701 86.1998 273.493Z" fill="#B7B7B7" fill-opacity="0.43"/>
<path d="M86.1998 307.071C86.1998 309.864 88.5727 312.127 91.4998 312.127C94.4269 312.127 96.7998 309.864 96.7998 307.071C96.7998 304.279 94.4269 302.016 91.4998 302.016C88.5727 302.016 86.1998 304.279 86.1998 307.071Z" fill="#B7B7B7" fill-opacity="0.43"/>
<path d="M86.1998 340.555C86.1998 343.347 88.5727 345.61 91.4998 345.61C94.4269 345.61 96.7998 343.347 96.7998 340.555C96.7998 337.762 94.4269 335.499 91.4998 335.499C88.5727 335.499 86.1998 337.762 86.1998 340.555Z" fill="#B7B7B7" fill-opacity="0.43"/>
<path d="M86.1998 374.133C86.1998 376.926 88.5727 379.189 91.4998 379.189C94.4269 379.189 96.7998 376.926 96.7998 374.133C96.7998 371.341 94.4269 369.077 91.4998 369.077C88.5727 369.077 86.1998 371.341 86.1998 374.133Z" fill="#B7B7B7" fill-opacity="0.43"/>
<path d="M86.1998 407.712C86.1998 410.504 88.5727 412.767 91.4998 412.767C94.4269 412.767 96.7998 410.504 96.7998 407.712C96.7998 404.919 94.4269 402.656 91.4998 402.656C88.5727 402.656 86.1998 404.919 86.1998 407.712Z" fill="#B7B7B7" fill-opacity="0.43"/>
<path d="M52.4996 5.05585C52.4996 7.84813 54.8725 10.1117 57.7996 10.1117C60.7267 10.1117 63.0996 7.84813 63.0996 5.05585C63.0996 2.26358 60.7267 -9.89438e-08 57.7996 -2.20998e-07C54.8725 -3.43052e-07 52.4996 2.26358 52.4996 5.05585Z" fill="#B7B7B7" fill-opacity="0.43"/>
<path d="M52.4996 38.6342C52.4996 41.4265 54.8725 43.6901 57.7996 43.6901C60.7267 43.6901 63.0996 41.4265 63.0996 38.6342C63.0996 35.842 60.7267 33.5784 57.7996 33.5784C54.8725 33.5784 52.4996 35.842 52.4996 38.6342Z" fill="#B7B7B7" fill-opacity="0.43"/>
<path d="M52.4996 72.2128C52.4996 75.0051 54.8725 77.2687 57.7996 77.2687C60.7267 77.2687 63.0996 75.0051 63.0996 72.2128C63.0996 69.4206 60.7267 67.157 57.7996 67.157C54.8725 67.157 52.4996 69.4206 52.4996 72.2128Z" fill="#B7B7B7" fill-opacity="0.43"/>
<path d="M52.4996 105.791C52.4996 108.584 54.8725 110.847 57.7996 110.847C60.7267 110.847 63.0996 108.584 63.0996 105.791C63.0996 102.999 60.7267 100.736 57.7996 100.736C54.8725 100.736 52.4996 102.999 52.4996 105.791Z" fill="#B7B7B7" fill-opacity="0.43"/>
<path d="M52.4996 139.274C52.4996 142.067 54.8725 144.33 57.7996 144.33C60.7267 144.33 63.0996 142.067 63.0996 139.274C63.0996 136.482 60.7267 134.219 57.7996 134.219C54.8725 134.219 52.4996 136.482 52.4996 139.274Z" fill="#B7B7B7" fill-opacity="0.43"/>
<path d="M52.4996 172.853C52.4996 175.645 54.8725 177.909 57.7996 177.909C60.7267 177.909 63.0996 175.645 63.0996 172.853C63.0996 170.061 60.7267 167.797 57.7996 167.797C54.8725 167.797 52.4996 170.061 52.4996 172.853Z" fill="#B7B7B7" fill-opacity="0.43"/>
<path d="M52.4996 206.431C52.4996 209.224 54.8725 211.487 57.7996 211.487C60.7267 211.487 63.0996 209.224 63.0996 206.431C63.0996 203.639 60.7267 201.375 57.7996 201.375C54.8725 201.375 52.4996 203.639 52.4996 206.431Z" fill="#B7B7B7" fill-opacity="0.43"/>
<path d="M52.4996 239.914C52.4996 242.707 54.8725 244.97 57.7996 244.97C60.7267 244.97 63.0996 242.707 63.0996 239.914C63.0996 237.122 60.7267 234.859 57.7996 234.859C54.8725 234.859 52.4996 237.122 52.4996 239.914Z" fill="#B7B7B7" fill-opacity="0.43"/>
<path d="M52.4996 273.493C52.4996 276.285 54.8725 278.549 57.7996 278.549C60.7267 278.549 63.0996 276.285 63.0996 273.493C63.0996 270.701 60.7267 268.437 57.7996 268.437C54.8725 268.437 52.4996 270.701 52.4996 273.493Z" fill="#B7B7B7" fill-opacity="0.43"/>
<path d="M52.4996 307.071C52.4996 309.864 54.8725 312.127 57.7996 312.127C60.7267 312.127 63.0996 309.864 63.0996 307.071C63.0996 304.279 60.7267 302.016 57.7996 302.016C54.8725 302.016 52.4996 304.279 52.4996 307.071Z" fill="#B7B7B7" fill-opacity="0.43"/>
<path d="M52.4996 340.555C52.4996 343.347 54.8725 345.61 57.7996 345.61C60.7267 345.61 63.0996 343.347 63.0996 340.555C63.0996 337.762 60.7267 335.499 57.7996 335.499C54.8725 335.499 52.4996 337.762 52.4996 340.555Z" fill="#B7B7B7" fill-opacity="0.43"/>
<path d="M52.4996 374.133C52.4996 376.926 54.8725 379.189 57.7996 379.189C60.7267 379.189 63.0996 376.926 63.0996 374.133C63.0996 371.341 60.7267 369.077 57.7996 369.077C54.8725 369.077 52.4996 371.341 52.4996 374.133Z" fill="#B7B7B7" fill-opacity="0.43"/>
<path d="M52.4996 407.712C52.4996 410.504 54.8725 412.767 57.7996 412.767C60.7267 412.767 63.0996 410.504 63.0996 407.712C63.0996 404.919 60.7267 402.656 57.7996 402.656C54.8725 402.656 52.4996 404.919 52.4996 407.712Z" fill="#B7B7B7" fill-opacity="0.43"/>
<path d="M18.6998 5.05585C18.6998 7.84812 21.0727 10.1117 23.9998 10.1117C26.9269 10.1117 29.2998 7.84812 29.2998 5.05585C29.2998 2.26358 26.9269 -9.89438e-08 23.9998 -2.20998e-07C21.0727 -3.43052e-07 18.6998 2.26358 18.6998 5.05585Z" fill="#B7B7B7" fill-opacity="0.43"/>
<path d="M18.6998 38.6342C18.6998 41.4265 21.0727 43.6901 23.9998 43.6901C26.9269 43.6901 29.2998 41.4265 29.2998 38.6342C29.2998 35.842 26.9269 33.5784 23.9998 33.5784C21.0727 33.5784 18.6998 35.842 18.6998 38.6342Z" fill="#B7B7B7" fill-opacity="0.43"/>
<path d="M18.6998 72.2128C18.6998 75.0051 21.0727 77.2687 23.9998 77.2687C26.9269 77.2687 29.2998 75.0051 29.2998 72.2128C29.2998 69.4206 26.9269 67.157 23.9998 67.157C21.0727 67.157 18.6998 69.4206 18.6998 72.2128Z" fill="#B7B7B7" fill-opacity="0.43"/>
<path d="M18.6998 105.791C18.6998 108.584 21.0727 110.847 23.9998 110.847C26.9269 110.847 29.2998 108.584 29.2998 105.791C29.2998 102.999 26.9269 100.736 23.9998 100.736C21.0727 100.736 18.6998 102.999 18.6998 105.791Z" fill="#B7B7B7" fill-opacity="0.43"/>
<path d="M18.6998 139.274C18.6998 142.067 21.0727 144.33 23.9998 144.33C26.9269 144.33 29.2998 142.067 29.2998 139.274C29.2998 136.482 26.9269 134.219 23.9998 134.219C21.0727 134.219 18.6998 136.482 18.6998 139.274Z" fill="#B7B7B7" fill-opacity="0.43"/>
<path d="M18.6998 172.853C18.6998 175.645 21.0727 177.909 23.9998 177.909C26.9269 177.909 29.2998 175.645 29.2998 172.853C29.2998 170.061 26.9269 167.797 23.9998 167.797C21.0727 167.797 18.6998 170.061 18.6998 172.853Z" fill="#B7B7B7" fill-opacity="0.43"/>
<path d="M18.6998 206.431C18.6998 209.224 21.0727 211.487 23.9998 211.487C26.9269 211.487 29.2998 209.224 29.2998 206.431C29.2998 203.639 26.9269 201.375 23.9998 201.375C21.0727 201.375 18.6998 203.639 18.6998 206.431Z" fill="#B7B7B7" fill-opacity="0.43"/>
<path d="M18.6998 239.914C18.6998 242.707 21.0727 244.97 23.9998 244.97C26.9269 244.97 29.2998 242.707 29.2998 239.914C29.2998 237.122 26.9269 234.859 23.9998 234.859C21.0727 234.859 18.6998 237.122 18.6998 239.914Z" fill="#B7B7B7" fill-opacity="0.43"/>
<path d="M18.6998 273.493C18.6998 276.285 21.0727 278.549 23.9998 278.549C26.9269 278.549 29.2998 276.285 29.2998 273.493C29.2998 270.701 26.9269 268.437 23.9998 268.437C21.0727 268.437 18.6998 270.701 18.6998 273.493Z" fill="#B7B7B7" fill-opacity="0.43"/>
<path d="M18.6998 307.071C18.6998 309.864 21.0727 312.127 23.9998 312.127C26.9269 312.127 29.2998 309.864 29.2998 307.071C29.2998 304.279 26.9269 302.016 23.9998 302.016C21.0727 302.016 18.6998 304.279 18.6998 307.071Z" fill="#B7B7B7" fill-opacity="0.43"/>
<path d="M18.6998 340.555C18.6998 343.347 21.0727 345.61 23.9998 345.61C26.9269 345.61 29.2998 343.347 29.2998 340.555C29.2998 337.762 26.9269 335.499 23.9998 335.499C21.0727 335.499 18.6998 337.762 18.6998 340.555Z" fill="#B7B7B7" fill-opacity="0.43"/>
<path d="M18.6998 374.133C18.6998 376.926 21.0727 379.189 23.9998 379.189C26.9269 379.189 29.2998 376.926 29.2998 374.133C29.2998 371.341 26.9269 369.077 23.9998 369.077C21.0727 369.077 18.6998 371.341 18.6998 374.133Z" fill="#B7B7B7" fill-opacity="0.43"/>
<path d="M18.6998 407.712C18.6998 410.504 21.0727 412.767 23.9998 412.767C26.9269 412.767 29.2998 410.504 29.2998 407.712C29.2998 404.919 26.9269 402.656 23.9998 402.656C21.0727 402.656 18.6998 404.919 18.6998 407.712Z" fill="#B7B7B7" fill-opacity="0.43"/>
</g>
<defs>
<clipPath id="clip0_1665_3360">
<rect width="412.768" height="584.3" fill="white" transform="translate(434.3) rotate(90)"/>
</clipPath>
</defs>
</svg>
